<svg width="43" height="34" viewBox="0 0 43 34" fill="none" xmlns="http://www.w3.org/2000/svg">
<path fill-rule="evenodd" clip-rule="evenodd" d="M0 10.625C0 4.75698 4.75698 0 10.625 0H31.875C37.743 0 42.5 4.75698 42.5 10.625V23.375C42.5 29.243 37.743 34 31.875 34H10.625C4.75698 34 0 29.243 0 23.375V10.625ZM10.625 4.25C7.10419 4.25 4.25 7.10419 4.25 10.625V23.375C4.25 26.8959 7.10419 29.75 10.625 29.75H31.875C35.3959 29.75 38.25 26.8959 38.25 23.375V10.625C38.25 7.10419 35.3959 4.25 31.875 4.25H10.625Z" fill="#37D4D9"/>
<path fill-rule="evenodd" clip-rule="evenodd" d="M8.96573 9.2976C9.69888 8.38117 11.0361 8.23259 11.9525 8.96573L17.2677 13.2177C19.5959 15.0805 22.9043 15.0805 25.2325 13.2177L30.5475 8.96573C31.464 8.23259 32.8013 8.38117 33.5344 9.2976C34.2675 10.214 34.119 11.5513 33.2025 12.2844L27.8874 16.5365C24.007 19.6409 18.4932 19.6409 14.6127 16.5365L9.2976 12.2844C8.38117 11.5513 8.23259 10.214 8.96573 9.2976Z" fill="#FF681A"/>
</svg>
