<svg width="76" height="70" viewBox="0 0 76 70" fill="none" xmlns="http://www.w3.org/2000/svg">
<path d="M4.13557 52.0145C5.86729 52.0145 7.27113 50.6107 7.27113 48.879C7.27113 47.1472 5.86729 45.7434 4.13557 45.7434C2.40384 45.7434 1 47.1472 1 48.879C1 50.6107 2.40384 52.0145 4.13557 52.0145Z" stroke="white" stroke-width="1.875" stroke-linecap="round" stroke-linejoin="round"/>
<path d="M11.0677 26.9299L9.72062 27.6034C9.45803 27.734 9.22374 27.915 9.03117 28.1362C8.8386 28.3573 8.69151 28.6143 8.59832 28.8923C8.50513 29.1704 8.46767 29.4641 8.48807 29.7566C8.50848 30.0492 8.58635 30.3348 8.71724 30.5973L15.5302 44.2232C15.7332 44.629 15.8076 45.0871 15.7434 45.5364L15.3935 47.9846C15.3484 48.3012 15.3718 48.6237 15.4622 48.9304C15.5526 49.2372 15.7078 49.5209 15.9173 49.7624C16.1269 50.0039 16.3859 50.1977 16.6768 50.3304C16.9677 50.4632 17.2837 50.5319 17.6034 50.5319C18.0442 50.5316 18.475 50.4007 18.8414 50.1557L22.5902 47.656C22.9569 47.4115 23.3875 47.2806 23.8282 47.2797H25.7948C26.3867 47.2794 26.9542 47.044 27.3726 46.6254C27.791 46.2068 28.0261 45.6391 28.0261 45.0472V44.6371C28.0264 44.0454 28.2616 43.4781 28.6799 43.0597C29.0983 42.6413 29.6657 42.4061 30.2573 42.4058H41.7222C42.0153 42.4056 42.3055 42.4632 42.5762 42.5753C42.847 42.6874 43.093 42.8519 43.3 43.0593L47.5318 47.2847V48.9152H50.6674C51.1652 48.9154 51.6487 49.0818 52.0411 49.3881C52.4335 49.6944 52.7124 50.1231 52.8334 50.6059L53.6123 55.3469C53.7338 55.8267 54.0112 56.2524 54.401 56.5573C54.7908 56.8622 55.2709 57.029 55.7658 57.0313H59.1422C59.5567 57.0312 59.9631 56.9156 60.3157 56.6977C60.6684 56.4797 60.9534 56.1679 61.1389 55.7972L61.529 55.0158C61.7145 54.6452 61.9996 54.3336 62.3523 54.1158C62.7049 53.8981 63.1112 53.7828 63.5257 53.7829H65.7244C66.5258 53.7829 67.2646 51.7285 67.6621 51.0336L73.3375 41.1002C73.457 40.892 73.5417 40.6658 73.5884 40.4304L74.978 33.4832C75.0834 32.9548 74.9944 32.406 74.7272 31.938L69.0669 22.0384C68.7935 21.564 68.3551 21.2069 67.8352 21.035L65.1248 20.132C64.7205 19.997 64.3633 19.7491 64.0954 19.4174C63.8276 19.0858 63.6603 18.6844 63.6135 18.2607L63.093 13.5761C63.0517 13.2058 62.9185 12.8517 62.7053 12.5461C62.4921 12.2405 62.2059 11.9931 61.8726 11.8265L60.9432 11.3624C60.5725 11.1769 60.2607 10.8919 60.0427 10.5392C59.8248 10.1866 59.7093 9.78027 59.7091 9.36571V5.85889H58.0849L54.2745 12.209C53.9853 12.6914 53.5246 13.0467 52.9846 13.2039C52.4446 13.3611 51.8651 13.3086 51.3622 13.0569L48.4449 11.5982C47.9644 11.358 47.5866 10.9526 47.3809 10.4564C47.1752 9.96012 47.1553 9.40635 47.3249 8.89662L47.3587 8.79629C47.4703 8.46082 47.5007 8.10364 47.4473 7.75415C47.3939 7.40466 47.2582 7.07285 47.0515 6.78604C46.8448 6.49923 46.5729 6.26561 46.2582 6.10442C45.9436 5.94323 45.5951 5.85908 45.2416 5.85889H39.9738C39.5593 5.85905 39.1529 5.97458 38.8003 6.19255C38.4476 6.41051 38.1626 6.72231 37.9771 7.09305L36.1459 10.7554C35.9189 11.2093 35.544 11.5723 35.083 11.7846C34.6219 11.9968 34.1024 12.0457 33.6099 11.9231L30.3225 11.1016C30.0364 11.0296 29.7388 11.0153 29.447 11.0595C29.1552 11.1036 28.8752 11.2053 28.6231 11.3587" stroke="white" stroke-width="1.875" stroke-linecap="round" stroke-linejoin="round"/>
<path d="M23.25 60.8643C23.9905 60.8643 24.5908 60.264 24.5908 59.5235C24.5908 58.783 23.9905 58.1827 23.25 58.1827C22.5095 58.1827 21.9092 58.783 21.9092 59.5235C21.9092 60.264 22.5095 60.8643 23.25 60.8643Z" fill="white"/>
<path d="M37.3726 57.0314V59.5398" stroke="white" stroke-width="1.875" stroke-linecap="round" stroke-linejoin="round"/>
<path d="M37.3726 64.5568V67.0652" stroke="white" stroke-width="1.875" stroke-linecap="round" stroke-linejoin="round"/>
<path d="M32.3557 62.0483H34.8641" stroke="white" stroke-width="1.875" stroke-linecap="round" stroke-linejoin="round"/>
<path d="M39.881 62.0483H42.3895" stroke="white" stroke-width="1.875" stroke-linecap="round" stroke-linejoin="round"/>
<path d="M55.0572 62.0484H59.8233C59.9681 62.0482 60.1106 62.0852 60.2371 62.1556C60.3636 62.2261 60.47 62.3277 60.5462 62.4509C60.6224 62.5741 60.6658 62.7147 60.6723 62.8594C60.6788 63.0041 60.6482 63.148 60.5833 63.2775L58.6945 68.3195L54.2921 63.2775C54.2271 63.1476 54.1965 63.0032 54.2032 62.8581C54.21 62.713 54.2538 62.5721 54.3306 62.4487C54.4073 62.3254 54.5144 62.2239 54.6417 62.1538C54.7689 62.0837 54.912 62.0474 55.0572 62.0484Z" stroke="white" stroke-width="1.875" stroke-linecap="round" stroke-linejoin="round"/>
<path d="M18.2845 1.00012C15.6763 1.0322 13.1876 2.09873 11.3655 3.96524C9.54347 5.83175 8.53722 8.34545 8.56801 10.9537C8.56801 16.4509 18.2845 29.4385 18.2845 29.4385C18.2845 29.4385 28.001 16.4509 28.001 10.9537C28.0321 8.34535 27.026 5.83146 25.2039 3.96488C23.3817 2.0983 20.8928 1.03187 18.2845 1.00012ZM18.2845 15.9919C17.2828 16.0166 16.2965 15.7421 15.4516 15.2035C14.6066 14.6649 13.9414 13.8867 13.5409 12.9682C13.1404 12.0498 13.0228 11.0328 13.2031 10.0471C13.3834 9.06149 13.8534 8.15197 14.5532 7.43476C15.2529 6.71755 16.1505 6.22521 17.1314 6.02062C18.1123 5.81604 19.1319 5.9085 20.06 6.2862C20.988 6.66389 21.7825 7.30968 22.3417 8.14106C22.901 8.97244 23.1998 9.95167 23.1998 10.9537C23.2156 12.2734 22.7067 13.5454 21.785 14.4902C20.8633 15.4349 19.6042 15.975 18.2845 15.9919Z" stroke="white" stroke-width="1.875" stroke-linecap="round" stroke-linejoin="round"/>
<path d="M58.4198 22.322C55.8116 22.3541 53.3228 23.4206 51.5008 25.2871C49.6787 27.1537 48.6725 29.6673 48.7033 32.2756C48.7033 37.7728 58.4198 50.7604 58.4198 50.7604C58.4198 50.7604 68.1363 37.7728 68.1363 32.2756C68.1674 29.6672 67.1612 27.1534 65.3391 25.2868C63.517 23.4202 61.0281 22.3538 58.4198 22.322ZM58.4198 37.3138C57.4181 37.3385 56.4318 37.064 55.5868 36.5254C54.7419 35.9868 54.0767 35.2086 53.6762 34.2901C53.2757 33.3717 53.1581 32.3547 53.3384 31.369C53.5187 30.3834 53.9887 29.4739 54.6884 28.7567C55.3881 28.0395 56.2858 27.5471 57.2666 27.3425C58.2475 27.1379 59.2671 27.2304 60.1952 27.6081C61.1233 27.9858 61.9177 28.6316 62.477 29.463C63.0363 30.2943 63.335 31.2736 63.3351 32.2756C63.3508 33.5953 62.8419 34.8673 61.9202 35.8121C60.9986 36.7568 59.7395 37.2969 58.4198 37.3138Z" stroke="white" stroke-width="1.875" stroke-linecap="round" stroke-linejoin="round"/>
</svg>
