<svg width="60" height="60" viewBox="0 0 60 60" fill="none" xmlns="http://www.w3.org/2000/svg">
<mask id="path-1-inside-1_32_42" fill="white">
<path d="M58.6959 57.3914H57.3915V50.8697C57.3915 50.5237 57.2541 50.1919 57.0095 49.9473C56.7649 49.7027 56.4331 49.5653 56.0872 49.5653C55.7412 49.5653 55.4095 49.7027 55.1649 49.9473C54.9202 50.1919 54.7828 50.5237 54.7828 50.8697V52.174H5.21741V50.8697C5.21741 50.5237 5.07999 50.1919 4.83537 49.9473C4.59076 49.7027 4.25899 49.5653 3.91306 49.5653C3.56712 49.5653 3.23536 49.7027 2.99074 49.9473C2.74613 50.1919 2.60871 50.5237 2.60871 50.8697V57.3914H1.30435C0.958417 57.3914 0.62665 57.5288 0.382036 57.7734C0.137422 58.0181 7.5361e-09 58.3498 7.5361e-09 58.6958C7.5361e-09 59.0417 0.137422 59.3735 0.382036 59.6181C0.62665 59.8627 0.958417 60.0001 1.30435 60.0001H58.6959C59.0418 60.0001 59.3736 59.8627 59.6182 59.6181C59.8628 59.3735 60.0002 59.0417 60.0002 58.6958C60.0002 58.3498 59.8628 58.0181 59.6182 57.7734C59.3736 57.5288 59.0418 57.3914 58.6959 57.3914ZM54.7828 57.3914H50.8698V54.7827H54.7828V57.3914ZM5.21741 54.7827H9.13047V57.3914H5.21741V54.7827ZM26.2246 14.9312C26.1475 14.7779 26.1014 14.6109 26.089 14.4398C26.0765 14.2687 26.0979 14.0968 26.152 13.934C26.206 13.7711 26.2917 13.6206 26.404 13.4909C26.5164 13.3612 26.6532 13.2549 26.8066 13.1782C26.9601 13.1015 27.1272 13.0558 27.2983 13.0437C27.4695 13.0317 27.6413 13.0535 27.804 13.1079C27.9667 13.1624 28.1171 13.2484 28.2465 13.361C28.3759 13.4737 28.4818 13.6107 28.5582 13.7644L30.0001 16.6482L31.442 13.7644C31.5973 13.4558 31.8685 13.2213 32.1964 13.1125C32.5242 13.0036 32.8819 13.0293 33.1908 13.1838C33.4998 13.3382 33.7349 13.609 33.8445 13.9366C33.9541 14.2641 33.9294 14.6218 33.7756 14.9312L31.4912 19.5L49.993 49.5653H38.744L31.1822 33.3615C31.0772 33.1366 30.9102 32.9462 30.7008 32.8129C30.4914 32.6796 30.2484 32.6087 30.0001 32.6087C29.7519 32.6087 29.5088 32.6796 29.2994 32.8129C29.09 32.9462 28.923 33.1366 28.818 33.3615L21.2562 49.5653H10.0072L28.509 19.5L26.2246 14.9312ZM31.3045 49.5653V39.7925L35.8651 49.5653H31.3045ZM28.6958 49.5653H24.1351L28.6958 39.7925V49.5653ZM36.5219 11.7143C36.5244 8.76403 37.6359 5.92253 39.6359 3.75362C41.6358 1.58471 44.3781 0.246908 47.3184 0.00567632C47.5265 -0.0135879 47.736 0.0174272 47.9296 0.0961083C48.1231 0.174789 48.2948 0.298831 48.4304 0.457781C48.5659 0.616731 48.6613 0.805933 48.7084 1.00944C48.7555 1.21295 48.753 1.42481 48.7011 1.62716C48.5102 2.3595 48.4116 3.11284 48.4075 3.86965C48.4294 6.31577 49.4206 8.65335 51.1636 10.3697C52.9067 12.086 55.2593 13.0409 57.7055 13.0249C57.9998 13.0249 58.2895 13.0071 58.5768 12.981C58.7848 12.9618 58.9944 12.993 59.1879 13.0717C59.3814 13.1505 59.5531 13.2746 59.6887 13.4336C59.8242 13.5926 59.9195 13.7818 59.9667 13.9853C60.0138 14.1889 60.0113 14.4007 59.9595 14.6031C59.2241 17.3895 57.5039 19.815 55.1174 21.4305C52.7309 23.0459 49.8399 23.7418 46.9797 23.3892C44.1195 23.0367 41.484 21.6596 39.5612 19.5131C37.6384 17.3665 36.5587 14.5959 36.5219 11.7143ZM7.5361e-09 22.8261C-2.94099e-05 22.5523 0.086066 22.2855 0.246092 22.0634C0.406119 21.8413 0.631965 21.6752 0.891642 21.5886C2.38307 21.1756 3.74482 20.3898 4.84859 19.305C5.95236 18.2203 6.76181 16.8725 7.20069 15.3885C7.26308 15.0958 7.42384 14.8334 7.65618 14.6448C7.88852 14.4563 8.17844 14.353 8.47765 14.3522H8.48594C8.78565 14.3532 9.07585 14.4575 9.30748 14.6477C9.53911 14.8379 9.69796 15.1023 9.75717 15.3961C10.1973 16.8784 11.0071 18.2245 12.1106 19.3078C13.214 20.391 14.5747 21.1759 16.0649 21.5886C16.3246 21.6752 16.5504 21.8414 16.7105 22.0634C16.8705 22.2855 16.9566 22.5523 16.9566 22.8261C16.9566 23.0998 16.8705 23.3666 16.7105 23.5887C16.5504 23.8108 16.3246 23.9769 16.0649 24.0635C14.5735 24.4765 13.2118 25.2624 12.108 26.3471C11.0042 27.4318 10.1948 28.7797 9.75589 30.2637C9.6935 30.5563 9.53275 30.8188 9.30041 31.0073C9.06806 31.1958 8.77815 31.2991 8.47893 31.2999H8.47065C8.17094 31.299 7.88073 31.1946 7.6491 31.0044C7.41747 30.8142 7.25862 30.5498 7.19941 30.256C6.7593 28.7737 5.94946 27.4276 4.84603 26.3444C3.74261 25.2611 2.38184 24.4763 0.891642 24.0635C0.631965 23.9769 0.406119 23.8108 0.246092 23.5887C0.086066 23.3666 -2.94099e-05 23.0998 7.5361e-09 22.8261ZM9.13047 8.47819C9.13044 8.20445 9.21654 7.93763 9.37656 7.71554C9.53659 7.49345 9.76243 7.32733 10.0221 7.24071C11.5135 6.82774 12.8753 6.04187 13.9791 4.95716C15.0828 3.87244 15.8923 2.52459 16.3312 1.04058C16.3936 0.747936 16.5543 0.485498 16.7866 0.296958C17.019 0.108418 17.3089 0.00515387 17.6081 0.00435901H17.6164C17.9161 0.005277 18.2063 0.10966 18.438 0.299861C18.6696 0.490061 18.8284 0.754411 18.8876 1.04822C19.3278 2.53055 20.1376 3.87661 21.241 4.95987C22.3444 6.04313 23.7052 6.82801 25.1954 7.24071C25.4551 7.32735 25.6809 7.49348 25.8409 7.71557C26.0009 7.93766 26.0871 8.20446 26.0871 8.47819C26.0871 8.75192 26.0009 9.01872 25.8409 9.24081C25.6809 9.4629 25.4551 9.62903 25.1954 9.71567C23.704 10.1286 22.3422 10.9145 21.2385 11.9992C20.1347 13.0839 19.3252 14.4318 18.8864 15.9158C18.824 16.2084 18.6632 16.4709 18.4309 16.6594C18.1985 16.848 17.9086 16.9512 17.6094 16.952H17.6011C17.3014 16.9511 17.0112 16.8467 16.7796 16.6565C16.5479 16.4663 16.3891 16.202 16.3299 15.9082C15.8898 14.4258 15.0799 13.0798 13.9765 11.9965C12.8731 10.9132 11.5123 10.1284 10.0221 9.71567C9.76243 9.62906 9.53659 9.46293 9.37656 9.24084C9.21654 9.01874 9.13044 8.75193 9.13047 8.47819Z"/>
</mask>
<path d="M58.6959 57.3914H57.3915V50.8697C57.3915 50.5237 57.2541 50.1919 57.0095 49.9473C56.7649 49.7027 56.4331 49.5653 56.0872 49.5653C55.7412 49.5653 55.4095 49.7027 55.1649 49.9473C54.9202 50.1919 54.7828 50.5237 54.7828 50.8697V52.174H5.21741V50.8697C5.21741 50.5237 5.07999 50.1919 4.83537 49.9473C4.59076 49.7027 4.25899 49.5653 3.91306 49.5653C3.56712 49.5653 3.23536 49.7027 2.99074 49.9473C2.74613 50.1919 2.60871 50.5237 2.60871 50.8697V57.3914H1.30435C0.958417 57.3914 0.62665 57.5288 0.382036 57.7734C0.137422 58.0181 7.5361e-09 58.3498 7.5361e-09 58.6958C7.5361e-09 59.0417 0.137422 59.3735 0.382036 59.6181C0.62665 59.8627 0.958417 60.0001 1.30435 60.0001H58.6959C59.0418 60.0001 59.3736 59.8627 59.6182 59.6181C59.8628 59.3735 60.0002 59.0417 60.0002 58.6958C60.0002 58.3498 59.8628 58.0181 59.6182 57.7734C59.3736 57.5288 59.0418 57.3914 58.6959 57.3914ZM54.7828 57.3914H50.8698V54.7827H54.7828V57.3914ZM5.21741 54.7827H9.13047V57.3914H5.21741V54.7827ZM26.2246 14.9312C26.1475 14.7779 26.1014 14.6109 26.089 14.4398C26.0765 14.2687 26.0979 14.0968 26.152 13.934C26.206 13.7711 26.2917 13.6206 26.404 13.4909C26.5164 13.3612 26.6532 13.2549 26.8066 13.1782C26.9601 13.1015 27.1272 13.0558 27.2983 13.0437C27.4695 13.0317 27.6413 13.0535 27.804 13.1079C27.9667 13.1624 28.1171 13.2484 28.2465 13.361C28.3759 13.4737 28.4818 13.6107 28.5582 13.7644L30.0001 16.6482L31.442 13.7644C31.5973 13.4558 31.8685 13.2213 32.1964 13.1125C32.5242 13.0036 32.8819 13.0293 33.1908 13.1838C33.4998 13.3382 33.7349 13.609 33.8445 13.9366C33.9541 14.2641 33.9294 14.6218 33.7756 14.9312L31.4912 19.5L49.993 49.5653H38.744L31.1822 33.3615C31.0772 33.1366 30.9102 32.9462 30.7008 32.8129C30.4914 32.6796 30.2484 32.6087 30.0001 32.6087C29.7519 32.6087 29.5088 32.6796 29.2994 32.8129C29.09 32.9462 28.923 33.1366 28.818 33.3615L21.2562 49.5653H10.0072L28.509 19.5L26.2246 14.9312ZM31.3045 49.5653V39.7925L35.8651 49.5653H31.3045ZM28.6958 49.5653H24.1351L28.6958 39.7925V49.5653ZM36.5219 11.7143C36.5244 8.76403 37.6359 5.92253 39.6359 3.75362C41.6358 1.58471 44.3781 0.246908 47.3184 0.00567632C47.5265 -0.0135879 47.736 0.0174272 47.9296 0.0961083C48.1231 0.174789 48.2948 0.298831 48.4304 0.457781C48.5659 0.616731 48.6613 0.805933 48.7084 1.00944C48.7555 1.21295 48.753 1.42481 48.7011 1.62716C48.5102 2.3595 48.4116 3.11284 48.4075 3.86965C48.4294 6.31577 49.4206 8.65335 51.1636 10.3697C52.9067 12.086 55.2593 13.0409 57.7055 13.0249C57.9998 13.0249 58.2895 13.0071 58.5768 12.981C58.7848 12.9618 58.9944 12.993 59.1879 13.0717C59.3814 13.1505 59.5531 13.2746 59.6887 13.4336C59.8242 13.5926 59.9195 13.7818 59.9667 13.9853C60.0138 14.1889 60.0113 14.4007 59.9595 14.6031C59.2241 17.3895 57.5039 19.815 55.1174 21.4305C52.7309 23.0459 49.8399 23.7418 46.9797 23.3892C44.1195 23.0367 41.484 21.6596 39.5612 19.5131C37.6384 17.3665 36.5587 14.5959 36.5219 11.7143ZM7.5361e-09 22.8261C-2.94099e-05 22.5523 0.086066 22.2855 0.246092 22.0634C0.406119 21.8413 0.631965 21.6752 0.891642 21.5886C2.38307 21.1756 3.74482 20.3898 4.84859 19.305C5.95236 18.2203 6.76181 16.8725 7.20069 15.3885C7.26308 15.0958 7.42384 14.8334 7.65618 14.6448C7.88852 14.4563 8.17844 14.353 8.47765 14.3522H8.48594C8.78565 14.3532 9.07585 14.4575 9.30748 14.6477C9.53911 14.8379 9.69796 15.1023 9.75717 15.3961C10.1973 16.8784 11.0071 18.2245 12.1106 19.3078C13.214 20.391 14.5747 21.1759 16.0649 21.5886C16.3246 21.6752 16.5504 21.8414 16.7105 22.0634C16.8705 22.2855 16.9566 22.5523 16.9566 22.8261C16.9566 23.0998 16.8705 23.3666 16.7105 23.5887C16.5504 23.8108 16.3246 23.9769 16.0649 24.0635C14.5735 24.4765 13.2118 25.2624 12.108 26.3471C11.0042 27.4318 10.1948 28.7797 9.75589 30.2637C9.6935 30.5563 9.53275 30.8188 9.30041 31.0073C9.06806 31.1958 8.77815 31.2991 8.47893 31.2999H8.47065C8.17094 31.299 7.88073 31.1946 7.6491 31.0044C7.41747 30.8142 7.25862 30.5498 7.19941 30.256C6.7593 28.7737 5.94946 27.4276 4.84603 26.3444C3.74261 25.2611 2.38184 24.4763 0.891642 24.0635C0.631965 23.9769 0.406119 23.8108 0.246092 23.5887C0.086066 23.3666 -2.94099e-05 23.0998 7.5361e-09 22.8261ZM9.13047 8.47819C9.13044 8.20445 9.21654 7.93763 9.37656 7.71554C9.53659 7.49345 9.76243 7.32733 10.0221 7.24071C11.5135 6.82774 12.8753 6.04187 13.9791 4.95716C15.0828 3.87244 15.8923 2.52459 16.3312 1.04058C16.3936 0.747936 16.5543 0.485498 16.7866 0.296958C17.019 0.108418 17.3089 0.00515387 17.6081 0.00435901H17.6164C17.9161 0.005277 18.2063 0.10966 18.438 0.299861C18.6696 0.490061 18.8284 0.754411 18.8876 1.04822C19.3278 2.53055 20.1376 3.87661 21.241 4.95987C22.3444 6.04313 23.7052 6.82801 25.1954 7.24071C25.4551 7.32735 25.6809 7.49348 25.8409 7.71557C26.0009 7.93766 26.0871 8.20446 26.0871 8.47819C26.0871 8.75192 26.0009 9.01872 25.8409 9.24081C25.6809 9.4629 25.4551 9.62903 25.1954 9.71567C23.704 10.1286 22.3422 10.9145 21.2385 11.9992C20.1347 13.0839 19.3252 14.4318 18.8864 15.9158C18.824 16.2084 18.6632 16.4709 18.4309 16.6594C18.1985 16.848 17.9086 16.9512 17.6094 16.952H17.6011C17.3014 16.9511 17.0112 16.8467 16.7796 16.6565C16.5479 16.4663 16.3891 16.202 16.3299 15.9082C15.8898 14.4258 15.0799 13.0798 13.9765 11.9965C12.8731 10.9132 11.5123 10.1284 10.0221 9.71567C9.76243 9.62906 9.53659 9.46293 9.37656 9.24084C9.21654 9.01874 9.13044 8.75193 9.13047 8.47819Z" stroke="white" stroke-width="4" mask="url(#path-1-inside-1_32_42)"/>
</svg>
