<svg width="47" height="56" viewBox="0 0 47 56" fill="none" xmlns="http://www.w3.org/2000/svg">
<path d="M1.56087 51.5002C1.91516 47.1429 3.80441 43.0329 6.91852 39.9188C10.0326 36.8046 14.1427 34.9154 18.5 34.5611V51.5002H1.56087ZM30.1022 46.3588L26.3347 42.6848L31.5434 41.9271L32.3237 41.8136L32.6726 41.1065L35.0005 36.3891L37.33 41.1069L37.679 41.8136L38.459 41.9271L43.6654 42.6847L39.8978 46.3588L39.3336 46.909L39.4665 47.6858L40.3539 52.8709L35.6982 50.4226L35.0001 50.0555L34.302 50.4225L29.6445 52.8709L30.5334 47.6862L30.6666 46.9092L30.1022 46.3588ZM20 29.0002C12.5409 29.0002 6.5 22.9593 6.5 15.5002C6.5 8.04117 12.5409 2.00024 20 2.00024C27.4591 2.00024 33.5 8.04117 33.5 15.5002C33.5 22.9593 27.4591 29.0002 20 29.0002Z" stroke="white" stroke-width="3"/>
</svg>
