<svg width="38" height="44" viewBox="0 0 38 44" fill="none" xmlns="http://www.w3.org/2000/svg">
<path d="M21.305 9.57369C24.6522 6.76191 26.8888 0.427371 25.5124 0.150313C23.6835 -0.217959 19.7122 1.39687 17.7926 1.68138C15.0701 2.0101 12.1049 -1.2709 10.4405 0.557927C9.08717 2.04489 11.4107 7.45248 15.0459 9.8083C4.20046 15.1387 -11.0435 41.8975 15.5504 43.8391C52.3476 46.5257 33.9219 14.768 21.305 9.57369ZM24.4652 30.677C24.3521 31.7202 23.7992 32.6636 22.9728 33.3041C22.1002 33.9803 21.0057 34.2949 19.9183 34.383V35.5356C19.9183 35.8441 19.7836 36.1423 19.5527 36.3465C19.2354 36.6273 18.7691 36.6966 18.3839 36.5191C18.0036 36.3441 17.7538 35.9541 17.7538 35.5356V34.2758C17.5674 34.2404 17.3822 34.1983 17.1993 34.1481C16.183 33.8688 15.2403 33.3246 14.5517 32.5193C14.2087 32.1179 13.9291 31.6624 13.7357 31.1707C13.6851 31.0422 13.6401 30.9114 13.6006 30.7791C13.5649 30.6593 13.5281 30.5375 13.5153 30.4127C13.4939 30.2032 13.5354 29.9895 13.633 29.8029C13.8337 29.4191 14.2565 29.1873 14.6883 29.2258C15.1132 29.2635 15.4856 29.5584 15.6194 29.9634C15.6606 30.0882 15.6885 30.216 15.7348 30.3395C15.7807 30.462 15.8361 30.5812 15.9012 30.6947C16.0298 30.9181 16.1909 31.1241 16.3764 31.3029C16.7589 31.6714 17.246 31.9109 17.7538 32.0534V27.771C16.7608 27.5139 15.7358 27.1819 14.9158 26.5443C14.5173 26.2343 14.1792 25.8492 13.9577 25.3933C13.7241 24.9122 13.6272 24.3762 13.6233 23.8438C13.6193 23.3033 13.722 22.7675 13.9475 22.275C14.1587 21.8138 14.4628 21.3998 14.8356 21.0566C15.6328 20.3228 16.6918 19.9136 17.7539 19.7632V19.669V18.5667C17.7539 18.2584 17.8886 17.96 18.1195 17.7558C18.4369 17.4751 18.903 17.4058 19.2883 17.5832C19.6685 17.7583 19.9184 18.1482 19.9184 18.5667V19.669V19.7567C20.0599 19.7745 20.2011 19.7958 20.3414 19.8213C21.3845 20.0101 22.4046 20.4408 23.1673 21.1927C23.5286 21.5489 23.8244 21.9733 24.0324 22.4361C24.0905 22.5652 24.1414 22.6973 24.1854 22.832C24.2264 22.9576 24.2676 23.0869 24.2871 23.218C24.3184 23.4272 24.2865 23.6434 24.197 23.8348C24.0135 24.227 23.6021 24.4767 23.1692 24.4582C22.7439 24.4397 22.3585 24.1627 22.2062 23.7651C22.1609 23.6469 22.1382 23.5217 22.0919 23.4038C22.0452 23.2844 21.9847 23.1705 21.9151 23.063C21.7796 22.8538 21.6042 22.6745 21.4038 22.5268C20.97 22.2064 20.4438 22.0395 19.9181 21.9462V26.0443C20.5429 26.1939 21.1683 26.3571 21.7669 26.5932C22.6717 26.95 23.5291 27.497 24.0229 28.3597C23.9463 28.2253 23.8718 28.0943 24.0255 28.3641C24.1765 28.6292 24.1044 28.5029 24.0286 28.37C24.4215 29.0625 24.5506 29.8904 24.4652 30.677Z" fill="white"/>
</svg>
