<svg width="41" height="41" viewBox="0 0 41 41" fill="none" xmlns="http://www.w3.org/2000/svg">
<path d="M13.1876 25.375L15.9062 23.334C16.1837 23.1262 16.5006 22.9771 16.8377 22.8957C17.1747 22.8145 17.5247 22.8028 17.8665 22.8614C18.2082 22.9199 18.5343 23.0475 18.825 23.2363C19.1159 23.4252 19.365 23.6713 19.5576 23.9596C19.8364 24.3787 19.9853 24.8708 19.9853 25.3742C19.9853 25.8776 19.8364 26.3697 19.5576 26.7887L16.8844 30.7976C16.063 32.029 14.8873 32.9821 13.5126 33.5309L9.58276 35.1044" stroke="white" stroke-width="3" stroke-linecap="round" stroke-linejoin="round"/>
<path d="M2.21875 38.7813V30.5312C2.21875 29.5406 2.41999 28.5604 2.81025 27.6501L4.72287 23.1878C5.46254 21.4616 6.83807 20.086 8.56438 19.3463L14.2913 16.8931" stroke="white" stroke-width="3" stroke-linecap="round" stroke-linejoin="round"/>
<path d="M14.4062 33.1019V35.125C14.4062 36.0946 14.7915 37.0246 15.4771 37.7104C16.1628 38.396 17.0928 38.7812 18.0625 38.7812H35.125C36.0946 38.7812 37.0246 38.396 37.7104 37.7104C38.396 37.0246 38.7812 36.0946 38.7812 35.125V5.875C38.7812 4.9053 38.396 3.97533 37.7104 3.28964C37.0246 2.60396 36.0946 2.21875 35.125 2.21875H31.4688C31.4688 3.51168 30.9551 4.75165 30.0409 5.6659C29.1266 6.58014 27.8866 7.09375 26.5938 7.09375C25.3009 7.09375 24.0609 6.58014 23.1466 5.6659C22.2324 4.75165 21.7188 3.51168 21.7188 2.21875H18.0625C17.0928 2.21875 16.1628 2.60396 15.4771 3.28964C14.7915 3.97533 14.4062 4.9053 14.4062 5.875V24.4601" stroke="white" stroke-width="3" stroke-linecap="round" stroke-linejoin="round"/>
<path d="M20.9648 16.4782L23.2138 17.783L32.6457 13.1675" stroke="white" stroke-width="3" stroke-linecap="round" stroke-linejoin="round"/>
<path d="M28.7372 15.0806L23.4023 11.9688" stroke="white" stroke-width="3" stroke-linecap="round" stroke-linejoin="round"/>
<path d="M38.7812 31.4688H33.9062" stroke="white" stroke-width="3" stroke-linecap="round" stroke-linejoin="round"/>
<path d="M29.0312 31.4688H25.375" stroke="white" stroke-width="3" stroke-linecap="round" stroke-linejoin="round"/>
</svg>
