<svg width="44" height="44" viewBox="0 0 44 44" fill="none" xmlns="http://www.w3.org/2000/svg">
<g clip-path="url(#clip0_207_15)">
<path d="M33.8685 19.1765C28.2408 19.1765 23.534 23.6894 23.534 29.3304C23.534 33.0227 27.6269 38.1509 30.3895 41.3304H20.5667V32.5099C20.5667 31.6894 19.9527 31.074 19.1342 31.074H11.767V24.3047C13.7111 22.356 20.5667 15.074 20.5667 10.2535C20.5667 4.61243 15.9622 0.0996094 10.2322 0.0996094C4.50215 0.0996094 0 4.50986 0 10.1509C0 14.9714 6.85555 22.2535 8.79967 24.2022V32.4073C8.79967 33.2278 9.41359 33.8432 10.2322 33.8432H17.5993V42.6637C17.5993 43.4842 18.2133 44.0996 19.0318 44.0996H33.7662C33.9708 44.0996 34.1754 44.0996 34.2778 43.997C34.3801 43.997 34.3801 43.8945 34.3801 43.8945C34.4824 43.7919 34.5847 43.7919 34.6871 43.6894C35.6079 42.7663 43.9983 34.4586 43.9983 29.2278C44.1006 23.6894 39.4962 19.1765 33.8685 19.1765ZM7.36716 10.1509C7.36716 8.50986 8.69734 7.17653 10.3345 7.17653C11.9716 7.17653 13.3018 8.50986 13.3018 10.1509C13.3018 11.7919 11.9716 13.1252 10.3345 13.1252C8.69734 13.1252 7.36716 11.7919 7.36716 10.1509ZM33.8685 32.3047C32.2313 32.3047 30.9011 30.9714 30.9011 29.3304C30.9011 27.6894 32.2313 26.356 33.8685 26.356C35.5056 26.356 36.8358 27.6894 36.8358 29.3304C36.7335 30.9714 35.4033 32.3047 33.8685 32.3047Z" fill="white"/>
</g>
<defs>
<clipPath id="clip0_207_15">
<rect width="44" height="44" fill="white"/>
</clipPath>
</defs>
</svg>
