<svg width="28" height="45" viewBox="0 0 28 45" fill="none" xmlns="http://www.w3.org/2000/svg">
<circle cx="13.8334" cy="13.8333" r="2.16667" fill="#FF681A"/>
<path d="M22.3485 36.8867C22.4509 37.1338 22.5025 37.3991 22.5002 37.6667C22.5002 40.05 18.6218 42 13.8335 42C9.04515 42 5.16682 40.05 5.16682 37.6667C5.16452 37.3991 5.2161 37.1338 5.31849 36.8867" stroke="#FF681A" stroke-width="5" stroke-linecap="round" stroke-linejoin="round"/>
<path d="M24.6667 13.8333C24.6667 10.9602 23.5253 8.20465 21.4937 6.17301C19.462 4.14137 16.7065 3 13.8333 3C10.9602 3 8.20465 4.14137 6.17301 6.17301C4.14137 8.20465 3 10.9602 3 13.8333C3 22.5 13.8333 33.3333 13.8333 33.3333C13.8333 33.3333 24.6667 22.5 24.6667 13.8333Z" stroke="#37D4D9" stroke-width="5" stroke-linecap="round" stroke-linejoin="round"/>
</svg>
