<svg width="34" height="34" viewBox="0 0 34 34" fill="none" xmlns="http://www.w3.org/2000/svg">
<path d="M10.6916 7.9974L11.8409 10.0568C12.878 11.9152 12.4617 14.3532 10.8281 15.9868C10.8281 15.9868 8.84687 17.9683 12.4392 21.5608C16.0305 25.1521 18.0133 23.1719 18.0133 23.1719C19.6469 21.5383 22.0848 21.122 23.9433 22.1592L26.0026 23.3085C28.809 24.8746 29.1403 28.8101 26.6737 31.2769C25.1915 32.7591 23.3757 33.9124 21.3685 33.9884C17.9895 34.1166 12.2512 33.2615 6.49489 27.5052C0.738671 21.7489 -0.116499 16.0105 0.0116026 12.6315C0.0876953 10.6243 1.241 8.80855 2.72321 7.32635C5.18989 4.85967 9.1254 5.1911 10.6916 7.9974Z" fill="#37D4D9"/>
<path d="M17.017 1.12709C17.1355 0.395377 17.8273 -0.100977 18.5593 0.0174702C18.6046 0.0261493 18.7504 0.0533855 18.8267 0.0703858C18.9796 0.104404 19.1926 0.156747 19.4582 0.234107C19.9895 0.388792 20.7316 0.643635 21.6223 1.05187C23.4057 1.86925 25.779 3.29906 28.2417 5.76105C30.7044 8.22305 32.1346 10.5956 32.9521 12.3784C33.3606 13.2689 33.6155 14.0109 33.7701 14.5419C33.8475 14.8075 33.8999 15.0205 33.9339 15.1732C33.9509 15.2496 33.9635 15.3109 33.9721 15.3562L33.9824 15.412C34.1008 16.1436 33.6089 16.8641 32.8769 16.9826C32.1471 17.1007 31.4596 16.6066 31.3382 15.8784C31.3345 15.8587 31.3241 15.8063 31.3132 15.7567C31.291 15.6576 31.2528 15.5005 31.1923 15.2926C31.0712 14.8768 30.8608 14.2589 30.5114 13.4971C29.8137 11.9755 28.5589 9.87428 26.343 7.65911C24.1273 5.44395 22.0255 4.18953 20.5034 3.49193C19.7414 3.14269 19.1233 2.93237 18.7073 2.81126C18.4995 2.75072 18.2381 2.69075 18.139 2.66869C17.4104 2.54731 16.8988 1.8567 17.017 1.12709Z" fill="#FF681A"/>
<path fill-rule="evenodd" clip-rule="evenodd" d="M17.0573 6.74052C17.2819 5.95455 18.101 5.49944 18.887 5.724L18.4805 7.14713C18.887 5.724 18.887 5.724 18.887 5.724L18.89 5.72483L18.8929 5.72569L18.8995 5.72761L18.9148 5.73219L18.9539 5.74434C18.9835 5.75385 19.0208 5.76625 19.065 5.78198C19.1536 5.81343 19.2708 5.85815 19.4145 5.91972C19.702 6.04294 20.0947 6.23322 20.5774 6.51879C21.5432 7.09045 22.8618 8.04002 24.4109 9.58909C25.96 11.1382 26.9094 12.4568 27.4811 13.4227C27.7667 13.9052 27.9569 14.2981 28.0803 14.5856C28.1418 14.7292 28.1866 14.8464 28.218 14.935C28.2338 14.9793 28.246 15.0165 28.2557 15.0462L28.2677 15.0853L28.2723 15.1006L28.2742 15.1071L28.275 15.1102C28.275 15.1102 28.276 15.113 26.8528 15.5196L28.276 15.113C28.5006 15.899 28.0453 16.7181 27.2595 16.9427C26.4802 17.1653 25.6682 16.7199 25.4355 15.9462L25.4282 15.9249C25.4178 15.8952 25.396 15.8369 25.3595 15.7516C25.2865 15.5812 25.1541 15.3025 24.9339 14.9304C24.4938 14.1869 23.6991 13.0635 22.3178 11.6822C20.9366 10.3009 19.8131 9.50623 19.0698 9.06621C18.6976 8.84594 18.4189 8.71353 18.2484 8.64051C18.1632 8.60398 18.1048 8.58219 18.0752 8.57168L18.0539 8.56439C17.2803 8.33177 16.8347 7.51981 17.0573 6.74052Z" fill="#FF681A"/>
</svg>
