<svg width="48" height="51" viewBox="0 0 48 51" fill="none" xmlns="http://www.w3.org/2000/svg">
<path d="M15.4713 12.8185L17.1344 15.7949C18.6353 18.4809 18.0328 22.0045 15.6689 24.3655C15.6689 24.3655 12.8019 27.2295 18.0003 32.4217C23.197 37.6121 26.0663 34.7502 26.0663 34.7502C28.4302 32.3892 31.958 31.7875 34.6473 33.2865L37.6272 34.9475C41.6883 37.2111 42.1677 42.899 38.5984 46.4642C36.4536 48.6064 33.826 50.2734 30.9214 50.3832C26.0319 50.5685 17.7281 49.3325 9.39848 41.013C1.0689 32.6935 -0.168581 24.3999 0.0167897 19.5162C0.1269 16.6152 1.7958 13.9909 3.94064 11.8487C7.51007 8.28359 13.205 8.7626 15.4713 12.8185Z" fill="white"/>
<path d="M25.023 1.60113C25.1833 0.561668 26.1193 -0.143447 27.1096 0.024818C27.1709 0.0371474 27.3682 0.0758388 27.4714 0.0999892C27.6782 0.148315 27.9664 0.222673 28.3258 0.33257C29.0446 0.552313 30.0487 0.91434 31.2538 1.49428C33.6666 2.65543 36.8774 4.6866 40.2093 8.18409C43.5412 11.6816 45.4762 15.052 46.5823 17.5847C47.1349 18.8497 47.4798 19.9037 47.689 20.6581C47.7936 21.0354 47.8646 21.338 47.9106 21.5549C47.9336 21.6634 47.9506 21.7505 47.9622 21.8148L47.9762 21.8941C48.1363 22.9335 47.4708 23.9569 46.4805 24.1252C45.4932 24.293 44.563 23.5911 44.3988 22.5567C44.3937 22.5288 44.3796 22.4543 44.3649 22.3839C44.3348 22.243 44.2833 22.0198 44.2014 21.7245C44.0374 21.1339 43.7529 20.256 43.2801 19.1738C42.3361 17.0122 40.6385 14.0273 37.6405 10.8804C34.6428 7.73362 31.7992 5.9516 29.7399 4.9606C28.7089 4.46447 27.8727 4.16569 27.3099 3.99364C27.0287 3.90764 26.6751 3.82245 26.541 3.79111C25.5553 3.61868 24.8631 2.63761 25.023 1.60113Z" fill="white"/>
<path fill-rule="evenodd" clip-rule="evenodd" d="M25.0809 11.0418C25.3979 9.87669 26.5544 9.20206 27.664 9.53493L27.0901 11.6445C27.664 9.53493 27.664 9.53493 27.664 9.53493L27.6682 9.53616L27.6724 9.53744L27.6816 9.54028L27.7033 9.54707L27.7585 9.56509C27.8003 9.57919 27.8529 9.59756 27.9153 9.62087C28.0404 9.6675 28.2059 9.73379 28.4087 9.82506C28.8146 10.0077 29.369 10.2898 30.0505 10.7131C31.4139 11.5605 33.2755 12.9681 35.4625 15.2644C37.6495 17.5607 38.9898 19.5153 39.7969 20.9471C40.2 21.6624 40.4686 22.2447 40.6427 22.6709C40.7296 22.8839 40.7929 23.0575 40.8372 23.1889C40.8595 23.2546 40.8767 23.3096 40.8904 23.3538L40.9074 23.4116L40.9138 23.4343L40.9166 23.4441L40.9177 23.4486C40.9177 23.4486 40.9191 23.4528 38.9098 24.0555L40.9191 23.4528C41.2361 24.6178 40.5934 25.8321 39.484 26.165C38.3839 26.495 37.2374 25.8347 36.909 24.6878L36.8987 24.6563C36.8839 24.6123 36.8532 24.5258 36.8017 24.3994C36.6986 24.1468 36.5117 23.7337 36.2008 23.182C35.5795 22.0799 34.4576 20.4147 32.5074 18.3671C30.5575 16.3195 28.9715 15.1415 27.922 14.4893C27.3966 14.1628 27.0032 13.9665 26.7625 13.8582C26.6421 13.8041 26.5597 13.7718 26.5179 13.7562L26.4878 13.7454C25.3957 13.4006 24.7666 12.1969 25.0809 11.0418Z" fill="white"/>
</svg>
