<svg width="60" height="45" viewBox="0 0 60 45" fill="none" xmlns="http://www.w3.org/2000/svg">
<path d="M14.0006 0C6.26824 0 0 6.27 0 14.0051C0 21.7375 6.26824 28.0075 14.0006 28.0075C14.0006 28.0075 13.9329 33.2096 9.70664 40.697C9.23719 42.1972 10.074 43.7948 11.5752 44.2616C12.6403 44.5966 13.7611 44.271 14.4848 43.5129C24.2026 32.884 28.0065 20.3745 28.0065 14.0051C28.0065 6.27 21.7384 0 14.0006 0Z" fill="#37D4D9"/>
<path d="M45.994 0C38.2616 0 31.9933 6.27012 31.9933 14.0051C31.9933 21.7375 38.2616 28.0075 45.994 28.0075C45.994 28.0075 45.9262 33.2096 41.7 40.697C41.2305 42.1972 42.0675 43.7948 43.5685 44.2616C44.6337 44.5966 45.7544 44.271 46.4781 43.5129C56.196 32.884 60 20.3745 60 14.0051C60 6.27 53.7317 0 45.994 0Z" fill="#37D4D9"/>
</svg>
