<svg width="50" height="45" viewBox="0 0 50 45" fill="none" xmlns="http://www.w3.org/2000/svg">
<path d="M14.0006 0C6.26824 0 0 6.27 0 14.0051C0 21.7375 6.26824 28.0075 14.0006 28.0075C14.0006 28.0075 13.9329 33.2096 9.70664 40.697C9.23719 42.1972 10.074 43.7948 11.5752 44.2616C12.6403 44.5966 13.7611 44.271 14.4848 43.5129C24.2026 32.884 28.0065 20.3745 28.0065 14.0051C28.0065 6.27 21.7384 0 14.0006 0Z" fill="#37D4D9"/>
<path d="M36.0006 0C28.2682 0 22 6.27012 22 14.0051C22 21.7375 28.2682 28.0075 36.0006 28.0075C36.0006 28.0075 35.9329 33.2096 31.7066 40.697C31.2372 42.1972 32.0741 43.7948 33.5752 44.2616C34.6403 44.5966 35.7611 44.271 36.4847 43.5129C46.2026 32.884 50.0066 20.3745 50.0066 14.0051C50.0066 6.27 43.7384 0 36.0006 0Z" fill="white"/>
</svg>
