<svg width="200" height="60" viewBox="0 0 200 60" fill="none" xmlns="http://www.w3.org/2000/svg">
<path d="M72.3822 21.0002C74.5007 19.2357 75.7386 18.3536 76.0959 18.3536H97.6892C97.5233 18.3795 97.1341 18.6649 96.5216 19.2098C95.909 19.7548 95.4815 20.1245 95.2389 20.3191C94.6519 20.7732 94.2307 21.0002 93.9756 21.0002H86.1269V38.8069C86.1269 40.3767 85.8652 41.6741 85.342 42.699C85.1123 43.1401 84.857 43.4774 84.5763 43.711H90.8935C90.7149 43.737 90.3192 44.0224 89.7066 44.5672C89.094 45.1122 88.6665 45.4819 88.424 45.6765C87.837 46.1306 87.4159 46.3577 87.1606 46.3577H80.4989C81.2645 45.6571 81.7431 45.0668 81.9346 44.5867C82.2408 43.8213 82.394 42.8612 82.394 41.7065V21.0002H72.3822ZM112.008 27.4418C110.464 29.7511 108.594 30.9058 106.399 30.9058C106.042 30.9058 105.583 30.7631 105.021 30.4777C103.949 29.9327 103.222 29.6603 102.839 29.6603C102.469 29.6603 102.169 29.7836 101.939 30.03C101.709 30.2765 101.518 30.6203 101.365 31.0615C101.02 32.0215 100.848 33.267 100.848 34.798V42.2514C100.848 43.0818 101.097 43.6461 101.594 43.9445C101.773 44.0612 101.996 44.1197 102.264 44.1197C102.532 44.1197 102.813 44.0548 103.107 43.9251C102.851 44.1586 102.603 44.4375 102.36 44.7619C102.118 45.0732 101.843 45.3781 101.537 45.6765C100.81 46.3901 99.9482 46.7469 98.9527 46.7469C98.4422 46.7469 98.0083 46.5848 97.651 46.2604C97.2936 45.9231 97.115 45.5144 97.115 45.0344V33.8249C97.115 33.3708 97.1214 32.9168 97.1341 32.4627C97.1469 32.0086 97.1022 31.5934 97.0001 31.2172C96.7577 30.3998 96.0621 29.9911 94.9135 29.9911C94.3648 29.9911 93.816 30.0949 93.2672 30.3025C93.599 30.1857 94.0265 29.8808 94.5498 29.3878C95.5707 28.4537 96.279 27.9088 96.6747 27.7531C97.4914 27.4547 98.1487 27.3055 98.6464 27.3055C99.1569 27.3055 99.5461 27.3833 99.8141 27.539C100.095 27.6818 100.312 27.8829 100.465 28.1423C100.72 28.5705 100.848 29.2322 100.848 30.1273C101.218 29.8419 101.62 29.524 102.054 29.1738C102.501 28.8105 102.96 28.4667 103.432 28.1423C104.568 27.3769 105.557 26.9941 106.399 26.9941C106.897 26.9941 107.42 27.1369 107.969 27.4223C108.518 27.7077 108.926 27.9153 109.194 28.045C109.462 28.1747 109.711 28.2396 109.941 28.2396C110.451 28.2396 111.14 27.9736 112.008 27.4418ZM124.317 40.5972L124.279 41.9595C124.279 42.9715 124.56 43.6137 125.121 43.8862C125.338 43.99 125.587 44.0419 125.868 44.0419C126.314 44.0419 126.774 43.9381 127.246 43.7304C126.761 43.9381 126.34 44.2105 125.983 44.5479C125.625 44.8851 125.262 45.216 124.891 45.5403C123.973 46.3187 123.047 46.7079 122.116 46.7079C121.184 46.7079 120.686 46.1631 120.623 45.0732C120.597 44.7878 120.584 44.5024 120.584 44.217C118.287 45.8387 116.181 46.6496 114.267 46.6496C112.646 46.6496 111.523 46.1501 110.898 45.1511C110.668 44.7878 110.553 44.2883 110.553 43.6526C110.553 43.0168 110.745 42.3811 111.128 41.7454C111.51 41.0968 111.995 40.5065 112.583 39.9745C113.629 38.9885 114.892 38.1776 116.373 37.5419C117.47 37.0618 118.881 36.7894 120.603 36.7245V35.8683C120.603 33.8055 120.418 32.4108 120.048 31.6842C119.678 30.9577 119.2 30.4258 118.613 30.0884C118.026 29.7381 117.336 29.563 116.545 29.563C115.205 29.563 114.025 29.8289 113.004 30.3608C114.407 29.1803 115.435 28.4018 116.086 28.0256C117.426 27.2601 118.638 26.8773 119.723 26.8773C120.82 26.8773 121.644 27.0396 122.192 27.3639C122.741 27.6882 123.175 28.1164 123.494 28.6483C124.043 29.5825 124.317 30.9252 124.317 32.6767V40.5972ZM115.32 43.3996C115.626 43.6202 115.984 43.7823 116.392 43.8862C116.8 43.99 117.407 44.0419 118.211 44.0419C119.015 44.0419 119.812 43.8472 120.603 43.458V39.3712H117.502C116.392 39.3712 115.422 39.449 114.593 39.6047C114.427 40.1626 114.344 40.6945 114.344 41.2005C114.344 41.7065 114.427 42.1412 114.593 42.5044C114.771 42.8677 115.014 43.1661 115.32 43.3996ZM147.021 29.3489C147.021 32.2161 145.005 36.6921 140.972 42.7769C140.742 43.1142 140.512 43.4645 140.283 43.8277C140.066 44.1781 139.868 44.457 139.689 44.6646C139.523 44.8721 139.338 45.0537 139.134 45.2095C138.93 45.3522 138.694 45.5144 138.426 45.696C138.158 45.8646 137.877 46.0398 137.583 46.2214C137.303 46.3901 137.041 46.5522 136.798 46.7079C136.211 47.1101 135.912 47.3372 135.899 47.3891C135.376 45.2095 134.833 43.0494 134.272 40.9087C133.71 38.755 133.187 37.0684 132.702 35.8488C132.217 34.6163 131.872 33.7535 131.668 33.2605C131.477 32.7675 131.241 32.294 130.96 31.8399C130.309 30.7501 129.575 30.2052 128.758 30.2052C128.312 30.2052 127.795 30.3803 127.208 30.7306C129.007 28.5769 130.813 27.5001 132.625 27.5001C133.965 27.5001 135.401 29.9198 136.932 34.759C137.571 36.783 138.056 38.4696 138.387 39.8188C138.732 41.1551 138.968 42.0763 139.096 42.5822C140.908 39.6891 142.171 37.0165 142.886 34.5644C143.166 33.6173 143.307 32.7416 143.307 31.9372C143.307 30.7566 142.861 30.1663 141.967 30.1663C141.648 30.1663 141.272 30.2441 140.838 30.3998C141.272 30.2311 141.654 29.9911 141.986 29.6797C142.318 29.3554 142.65 29.0375 142.982 28.7262C143.824 27.9348 144.704 27.539 145.623 27.539C146.555 27.539 147.021 28.1423 147.021 29.3489ZM165.379 29.5435C166.03 30.296 166.534 31.1588 166.892 32.1318C167.261 33.0919 167.447 34.0584 167.447 35.0315C167.447 36.0045 167.306 36.958 167.025 37.8922C166.745 38.8133 166.349 39.702 165.838 40.5584C165.34 41.4146 164.747 42.219 164.058 42.9715C163.382 43.711 162.635 44.3597 161.818 44.9176C160.082 46.0981 158.328 46.6885 156.554 46.6885C154.473 46.6885 152.707 45.8646 151.252 44.217C149.835 42.6341 149.126 40.7789 149.126 38.6512C149.126 36.8349 149.669 35.012 150.753 33.1827C152.374 30.4063 154.582 28.5315 157.377 27.5585C158.271 27.2341 159.215 27.072 160.211 27.072C161.206 27.072 162.151 27.299 163.043 27.7531C163.949 28.1942 164.728 28.7911 165.379 29.5435ZM156.324 29.6797C155.048 29.6797 154.116 30.309 153.53 31.5675C153.07 32.5534 152.84 33.6692 152.84 34.9147C152.84 36.1602 153 37.3214 153.319 38.3982C153.651 39.4621 154.136 40.4156 154.774 41.2589C156.19 43.1531 158.015 44.1002 160.249 44.1002C161.551 44.1002 162.494 43.4385 163.082 42.1152C163.503 41.1292 163.713 39.994 163.713 38.7095C163.713 36.2056 163.025 34.0779 161.646 32.3264C160.28 30.5619 158.506 29.6797 156.324 29.6797ZM179.468 43.9445C179.047 44.2818 178.645 44.6191 178.262 44.9565C177.88 45.2938 177.484 45.5922 177.075 45.8517C176.169 46.4485 175.232 46.7469 174.261 46.7469C172.858 46.7469 172.092 45.7608 171.964 43.7889C171.938 43.2569 171.926 42.7379 171.926 42.232V21.4089C171.926 19.6315 171.53 18.4768 170.739 17.9449C170.408 17.7113 170.089 17.5946 169.782 17.5946C169.373 17.5946 169.1 17.6075 168.959 17.6335C168.818 17.6465 168.697 17.6594 168.595 17.6724C170.433 16.375 171.594 15.5966 172.079 15.3371C172.717 14.9868 173.375 14.643 174.051 14.3057C174.74 13.9554 175.27 13.6829 175.64 13.4883V40.3442C175.64 40.8762 175.64 41.3692 175.64 41.8233C175.652 42.2773 175.729 42.6731 175.87 43.0104C176.189 43.711 176.992 44.0612 178.282 44.0612C178.69 44.0612 179.085 44.0224 179.468 43.9445ZM197.042 29.5435C197.692 30.296 198.197 31.1588 198.554 32.1318C198.924 33.0919 199.109 34.0584 199.109 35.0315C199.109 36.0045 198.968 36.958 198.688 37.8922C198.407 38.8133 198.011 39.702 197.501 40.5584C197.004 41.4146 196.41 42.219 195.721 42.9715C195.044 43.711 194.298 44.3597 193.481 44.9176C191.746 46.0981 189.99 46.6885 188.216 46.6885C186.137 46.6885 184.369 45.8646 182.914 44.217C181.497 42.6341 180.789 40.7789 180.789 38.6512C180.789 36.8349 181.332 35.012 182.416 33.1827C184.037 30.4063 186.245 28.5315 189.04 27.5585C189.933 27.2341 190.878 27.072 191.873 27.072C192.868 27.072 193.813 27.299 194.706 27.7531C195.612 28.1942 196.391 28.7911 197.042 29.5435ZM187.987 29.6797C186.711 29.6797 185.779 30.309 185.192 31.5675C184.733 32.5534 184.503 33.6692 184.503 34.9147C184.503 36.1602 184.662 37.3214 184.981 38.3982C185.313 39.4621 185.798 40.4156 186.436 41.2589C187.853 43.1531 189.678 44.1002 191.912 44.1002C193.213 44.1002 194.158 43.4385 194.744 42.1152C195.166 41.1292 195.376 39.994 195.376 38.7095C195.376 36.2056 194.687 34.0779 193.309 32.3264C191.944 30.5619 190.17 29.6797 187.987 29.6797Z" fill="white"/>
<path d="M72.3822 21.0002L71.8175 20.2995L69.8887 21.9061H72.3822V21.0002ZM97.6892 18.3536L97.8248 19.2489L97.6892 17.4477V18.3536ZM95.2389 20.3191L95.7784 21.0399L95.7849 21.035L95.7911 21.03L95.2389 20.3191ZM86.1269 21.0002V20.0944H85.2359V21.0002H86.1269ZM85.342 42.699L86.1295 43.1228L86.1329 43.1163L85.342 42.699ZM84.5763 43.711L84.0121 43.01L82.0802 44.6168H84.5763V43.711ZM90.8935 43.711L91.0195 44.6077L90.8935 42.8052V43.711ZM88.424 45.6765L88.9636 46.3974L88.9699 46.3925L88.9761 46.3875L88.424 45.6765ZM80.4989 46.3577L79.9028 45.6844L78.1769 47.2635H80.4989V46.3577ZM81.9346 44.5867L81.1092 44.2454L81.1088 44.2464L81.9346 44.5867ZM82.394 21.0002H83.285V20.0944H82.394V21.0002ZM72.9468 21.7009C74.0003 20.8235 74.8192 20.1786 75.411 19.7569C75.7084 19.545 75.9317 19.4014 76.0886 19.3146C76.1673 19.2711 76.2139 19.2506 76.234 19.2429C76.2679 19.2299 76.2089 19.2594 76.0959 19.2594V17.4477C75.8936 17.4477 75.7177 17.5047 75.6072 17.5469C75.4831 17.5944 75.3578 17.6565 75.237 17.7233C74.9951 17.857 74.7095 18.0444 74.388 18.2735C73.7418 18.734 72.8826 19.4124 71.8175 20.2995L72.9468 21.7009ZM76.0959 19.2594H97.6892V17.4477H76.0959V19.2594ZM97.5538 17.4582C97.3538 17.4895 97.1871 17.5756 97.0925 17.6285C96.9802 17.6916 96.8649 17.7694 96.7516 17.8525C96.5242 18.0192 96.2498 18.2479 95.9348 18.5281L97.1083 19.8915C97.4058 19.6269 97.6324 19.4403 97.7941 19.3217C97.8756 19.2621 97.927 19.2296 97.9534 19.2148C97.9976 19.19 97.9418 19.2305 97.8248 19.2489L97.5538 17.4582ZM95.9348 18.5281C95.3211 19.074 94.9093 19.4296 94.6869 19.6081L95.7911 21.03C96.0536 20.8194 96.4969 20.4354 97.1083 19.8915L95.9348 18.5281ZM94.6994 19.5982C94.426 19.8097 94.2167 19.9481 94.0654 20.0297C93.9905 20.07 93.9428 20.0895 93.9187 20.0975C93.8914 20.1067 93.9151 20.0944 93.9756 20.0944V21.9061C94.3267 21.9061 94.6545 21.7627 94.9003 21.6302C95.1701 21.4848 95.4649 21.2825 95.7784 21.0399L94.6994 19.5982ZM93.9756 20.0944H86.1269V21.9061H93.9756V20.0944ZM85.2359 21.0002V38.8069H87.0179V21.0002H85.2359ZM85.2359 38.8069C85.2359 40.2812 84.9893 41.4236 84.5511 42.2818L86.1329 43.1163C86.7413 41.9245 87.0179 40.4722 87.0179 38.8069H85.2359ZM84.5545 42.2752C84.3619 42.6452 84.1747 42.8746 84.0121 43.01L85.1405 44.4121C85.5394 44.0803 85.8627 43.6352 86.1295 43.1228L84.5545 42.2752ZM84.5763 44.6168H90.8935V42.8052H84.5763V44.6168ZM90.7675 42.8143C90.5687 42.8431 90.4015 42.9245 90.2995 42.9799C90.1825 43.0433 90.0634 43.1219 89.9471 43.2058C89.7137 43.3742 89.4359 43.6044 89.1198 43.8856L90.2933 45.2489C90.5899 44.9852 90.8162 44.8003 90.9784 44.6832C91.0599 44.6245 91.1115 44.5928 91.1381 44.5784C91.1796 44.5558 91.1289 44.5918 91.0195 44.6077L90.7675 42.8143ZM89.1198 43.8856C88.5061 44.4315 88.0944 44.787 87.8719 44.9656L88.9761 46.3875C89.2386 46.1769 89.6819 45.7928 90.2933 45.2489L89.1198 43.8856ZM87.8845 44.9556C87.6111 45.1672 87.4018 45.3056 87.2505 45.3871C87.1756 45.4275 87.1279 45.4469 87.1037 45.4549C87.0766 45.4641 87.1002 45.4518 87.1606 45.4518V47.2635C87.5117 47.2635 87.8396 47.1201 88.0854 46.9877C88.3552 46.8422 88.6499 46.64 88.9636 46.3974L87.8845 44.9556ZM87.1606 45.4518H80.4989V47.2635H87.1606V45.4518ZM81.0949 47.031C81.8788 46.3137 82.4885 45.6085 82.7603 44.927L81.1088 44.2464C80.9977 44.525 80.6503 45.0004 79.9028 45.6844L81.0949 47.031ZM82.7599 44.928C83.1231 44.0203 83.285 42.9351 83.285 41.7065H81.503C81.503 42.7874 81.3586 43.6222 81.1092 44.2454L82.7599 44.928ZM83.285 41.7065V21.0002H81.503V41.7065H83.285ZM82.394 20.0944H72.3822V21.9061H82.394V20.0944ZM112.008 27.4418L112.745 27.951L111.548 26.666L112.008 27.4418ZM101.365 31.0615L102.202 31.372L102.205 31.3629L101.365 31.0615ZM101.594 43.9445L102.076 43.1826L102.062 43.1731L102.047 43.1643L101.594 43.9445ZM103.107 43.9251L103.703 44.5983L102.751 43.0944L103.107 43.9251ZM102.36 44.7619L103.059 45.3241L103.064 45.3171L103.07 45.31L102.36 44.7619ZM101.537 45.6765L100.921 45.0226L100.918 45.0247L101.537 45.6765ZM97.651 46.2604L97.0447 46.9242L97.0511 46.9301L97.0575 46.936L97.651 46.2604ZM97.0001 31.2172L97.8591 30.9762L97.8562 30.9659L97.8532 30.9556L97.0001 31.2172ZM93.2672 30.3025L92.9565 29.4536L93.5586 31.1585L93.2672 30.3025ZM94.5498 29.3878L93.9537 28.7145L93.9489 28.719L93.9441 28.7235L94.5498 29.3878ZM96.6747 27.7531L96.3734 26.9007L96.3631 26.9044L96.3531 26.9084L96.6747 27.7531ZM99.8141 27.539L99.3721 28.3256L99.3936 28.338L99.4157 28.3492L99.8141 27.539ZM100.465 28.1423L99.701 28.6084L99.703 28.6118L100.465 28.1423ZM100.848 30.1273H99.9568V31.9514L101.386 30.849L100.848 30.1273ZM102.054 29.1738L102.608 29.8831L102.611 29.8811L102.054 29.1738ZM103.432 28.1423L102.94 27.3873L102.933 27.3918L103.432 28.1423ZM111.271 26.9325C109.846 29.0642 108.224 30 106.399 30V31.8116C108.964 31.8116 111.082 30.438 112.745 27.951L111.271 26.9325ZM106.399 30C106.248 30 105.938 29.9308 105.42 29.6674L104.623 31.2878C105.228 31.5953 105.836 31.8116 106.399 31.8116V30ZM105.42 29.6674C104.868 29.3872 104.386 29.1669 103.979 29.0146C103.597 28.8714 103.196 28.7545 102.839 28.7545V30.5661C102.839 30.5661 102.881 30.5673 102.981 30.5919C103.077 30.6154 103.203 30.6546 103.363 30.7145C103.684 30.8348 104.102 31.0232 104.623 31.2878L105.42 29.6674ZM102.839 28.7545C102.253 28.7545 101.709 28.9595 101.292 29.4071L102.586 30.653C102.628 30.6076 102.684 30.5661 102.839 30.5661V28.7545ZM101.292 29.4071C100.951 29.7736 100.704 30.2415 100.524 30.76L102.205 31.3629C102.331 30.9992 102.468 30.7795 102.586 30.653L101.292 29.4071ZM100.528 30.751C100.134 31.8471 99.9568 33.2086 99.9568 34.798H101.739C101.739 33.3255 101.906 32.1961 102.202 31.372L100.528 30.751ZM99.9568 34.798V42.2514H101.739V34.798H99.9568ZM99.9568 42.2514C99.9568 43.2553 100.267 44.2006 101.142 44.7248L102.047 43.1643C101.926 43.0917 101.739 42.9081 101.739 42.2514H99.9568ZM101.113 44.7065C101.468 44.939 101.87 45.0255 102.264 45.0255V43.2139C102.123 43.2139 102.078 43.1836 102.076 43.1826L101.113 44.7065ZM102.264 45.0255C102.676 45.0255 103.078 44.9256 103.462 44.7557L102.751 43.0944C102.549 43.1841 102.389 43.2139 102.264 43.2139V45.0255ZM102.511 43.2518C102.208 43.529 101.922 43.8515 101.651 44.2138L103.07 45.31C103.284 45.0236 103.495 44.7882 103.703 44.5983L102.511 43.2518ZM101.662 44.1997C101.446 44.4759 101.2 44.7504 100.921 45.0226L102.154 46.3305C102.487 46.0059 102.789 45.6706 103.059 45.3241L101.662 44.1997ZM100.918 45.0247C100.354 45.5781 99.7134 45.8411 98.9527 45.8411V47.6527C100.183 47.6527 101.265 47.2021 102.156 46.3284L100.918 45.0247ZM98.9527 45.8411C98.6455 45.8411 98.4272 45.7506 98.2444 45.5846L97.0575 46.936C97.5894 47.4188 98.239 47.6527 98.9527 47.6527V45.8411ZM98.2573 45.5966C98.0748 45.4243 98.006 45.2533 98.006 45.0344H96.224C96.224 45.7754 96.5125 46.4218 97.0447 46.9242L98.2573 45.5966ZM98.006 45.0344V33.8249H96.224V45.0344H98.006ZM98.006 33.8249C98.006 33.3794 98.0122 32.934 98.0248 32.4885L96.2435 32.4368C96.2305 32.8995 96.224 33.3621 96.224 33.8249H98.006ZM98.0248 32.4885C98.0397 31.9588 97.9882 31.4522 97.8591 30.9762L96.1412 31.458C96.2162 31.7346 96.2541 32.0583 96.2435 32.4368L98.0248 32.4885ZM97.8532 30.9556C97.6698 30.3375 97.296 29.8386 96.7424 29.5133C96.2132 29.2024 95.5809 29.0853 94.9135 29.0853V30.8969C95.3947 30.8969 95.6845 30.9842 95.8507 31.0819C95.9927 31.1653 96.088 31.2795 96.1471 31.4787L97.8532 30.9556ZM94.9135 29.0853C94.2518 29.0853 93.5979 29.2109 92.9565 29.4536L93.578 31.1514C94.034 30.979 94.4777 30.8969 94.9135 30.8969V29.0853ZM93.5586 31.1585C94.0751 30.9768 94.616 30.5605 95.1555 30.0522L93.9441 28.7235C93.4371 29.2012 93.123 29.3947 92.9757 29.4465L93.5586 31.1585ZM95.1459 30.0611C95.6465 29.603 96.0581 29.2518 96.3844 29.0008C96.7282 28.7363 96.9214 28.6274 96.9963 28.5978L96.3531 26.9084C96.0324 27.0346 95.6736 27.2758 95.3091 27.5562C94.9271 27.8502 94.4741 28.2385 93.9537 28.7145L95.1459 30.0611ZM96.9761 28.6055C97.757 28.3203 98.3006 28.2113 98.6464 28.2113V26.3997C97.9968 26.3997 97.226 26.5892 96.3734 26.9007L96.9761 28.6055ZM98.6464 28.2113C99.092 28.2113 99.2998 28.2835 99.3721 28.3256L100.256 26.7526C99.7925 26.4832 99.2218 26.3997 98.6464 26.3997V28.2113ZM99.4157 28.3492C99.5535 28.4193 99.6399 28.5048 99.701 28.6084L101.229 27.6763C100.984 27.2609 100.636 26.9442 100.213 26.7289L99.4157 28.3492ZM99.703 28.6118C99.8306 28.8258 99.9568 29.285 99.9568 30.1273H101.739C101.739 29.1793 101.61 28.315 101.227 27.6728L99.703 28.6118ZM101.386 30.849C101.763 30.5588 102.17 30.2368 102.608 29.8831L101.5 28.4644C101.07 28.8113 100.673 29.1249 100.309 29.4056L101.386 30.849ZM102.611 29.8811C103.039 29.5329 103.479 29.2036 103.931 28.8929L102.933 27.3918C102.441 27.7298 101.963 28.0881 101.497 28.4664L102.611 29.8811ZM103.925 28.8973C104.996 28.1749 105.81 27.8999 106.399 27.8999V26.0883C105.304 26.0883 104.14 26.5788 102.94 27.3873L103.925 28.8973ZM106.399 27.8999C106.726 27.8999 107.111 27.9933 107.563 28.2287L108.375 26.6159C107.73 26.2804 107.068 26.0883 106.399 26.0883V27.8999ZM107.563 28.2287C108.113 28.5148 108.531 28.7273 108.811 28.8629L109.577 27.2272C109.321 27.1033 108.922 26.9006 108.375 26.6159L107.563 28.2287ZM108.811 28.8629C109.165 29.0342 109.546 29.1454 109.941 29.1454V27.3338C109.876 27.3338 109.759 27.3153 109.577 27.2272L108.811 28.8629ZM109.941 29.1454C110.708 29.1454 111.574 28.7656 112.468 28.2175L111.548 26.666C110.707 27.1818 110.195 27.3338 109.941 27.3338V29.1454ZM124.317 40.5972L125.208 40.6231L125.208 40.6102V40.5972H124.317ZM124.279 41.9595L123.388 41.9337L123.388 41.9465V41.9595H124.279ZM125.121 43.8862L124.737 44.7037L124.742 44.7057L125.121 43.8862ZM127.246 43.7304L127.6 44.5619L126.9 42.8956L127.246 43.7304ZM124.891 45.5403L125.462 46.2362L125.473 46.2264L124.891 45.5403ZM120.623 45.0732L121.512 45.0194L121.511 45.0053L121.51 44.9912L120.623 45.0732ZM120.584 44.217L121.475 44.217V42.4851L120.076 43.4729L120.584 44.217ZM110.898 45.1511L111.65 44.6648L111.647 44.6613L110.898 45.1511ZM111.128 41.7454L111.888 42.2185L111.892 42.2115L111.128 41.7454ZM112.583 39.9745L113.175 40.6507L113.182 40.6449L113.188 40.6389L112.583 39.9745ZM116.373 37.5419L116.72 38.3764L116.725 38.374L116.373 37.5419ZM120.603 36.7245L120.636 37.6297L121.494 37.5975V36.7245H120.603ZM118.613 30.0884L118.162 30.8696L118.168 30.8733L118.174 30.877L118.613 30.0884ZM113.004 30.3608L112.436 29.6629L113.41 31.167L113.004 30.3608ZM116.086 28.0256L115.649 27.2359L115.645 27.2381L116.086 28.0256ZM123.494 28.6483L124.259 28.1839L124.255 28.1767L123.494 28.6483ZM115.32 43.3996L114.785 44.1243L114.795 44.1316L114.805 44.1388L115.32 43.3996ZM120.603 43.458L120.992 44.2734L121.494 44.026V43.458L120.603 43.458ZM120.603 39.3712H121.494V38.4654H120.603V39.3712ZM114.593 39.6047L114.431 38.714L113.897 38.8142L113.74 39.3426L114.593 39.6047ZM114.593 42.5044L113.784 42.8859L113.79 42.8977L113.796 42.9095L114.593 42.5044ZM123.427 40.5714L123.388 41.9337L125.17 41.9854L125.208 40.6231L123.427 40.5714ZM123.388 41.9595C123.388 43.0913 123.704 44.2024 124.737 44.7037L125.505 43.0687C125.415 43.025 125.17 42.8516 125.17 41.9595H123.388ZM124.742 44.7057C125.096 44.8752 125.478 44.9477 125.868 44.9477V43.1361C125.696 43.1361 125.58 43.1046 125.501 43.0666L124.742 44.7057ZM125.868 44.9477C126.453 44.9477 127.033 44.8112 127.6 44.5619L126.892 42.8991C126.515 43.0649 126.176 43.1361 125.868 43.1361V44.9477ZM126.9 42.8956C126.327 43.141 125.816 43.4691 125.376 43.8841L126.589 45.2115C126.864 44.9518 127.195 44.735 127.592 44.5652L126.9 42.8956ZM125.376 43.8841C125.027 44.2138 124.671 44.5372 124.31 44.8542L125.473 46.2264C125.852 45.8948 126.224 45.5565 126.589 45.2115L125.376 43.8841ZM124.321 44.8444C123.516 45.5265 122.786 45.8021 122.116 45.8021V47.6138C123.309 47.6138 124.429 47.111 125.462 46.2362L124.321 44.8444ZM122.116 45.8021C121.826 45.8021 121.734 45.7232 121.697 45.6829C121.641 45.6222 121.537 45.4498 121.512 45.0194L119.733 45.127C119.772 45.7865 119.949 46.4315 120.391 46.9156C120.852 47.4203 121.474 47.6138 122.116 47.6138V45.8021ZM121.51 44.9912C121.487 44.733 121.475 44.4749 121.475 44.217H119.693C119.693 44.5299 119.707 44.8427 119.735 45.1553L121.51 44.9912ZM120.076 43.4729C117.863 45.0355 115.934 45.7438 114.267 45.7438V47.5554C116.429 47.5554 118.712 46.6418 121.093 44.961L120.076 43.4729ZM114.267 45.7438C112.82 45.7438 112.052 45.3069 111.65 44.6648L110.146 45.6374C110.995 46.9932 112.473 47.5554 114.267 47.5554V45.7438ZM111.647 44.6613C111.544 44.4978 111.444 44.1919 111.444 43.6526H109.662C109.662 44.3848 109.792 45.0779 110.148 45.6409L111.647 44.6613ZM111.444 43.6526C111.444 43.2108 111.575 42.7367 111.888 42.2185L110.368 41.2724C109.914 42.0257 109.662 42.823 109.662 43.6526H111.444ZM111.892 42.2115C112.226 41.6455 112.652 41.1252 113.175 40.6507L111.99 39.2983C111.339 39.8876 110.795 40.548 110.364 41.2794L111.892 42.2115ZM113.188 40.6389C114.15 39.7328 115.323 38.9762 116.72 38.3764L116.026 36.7075C114.462 37.3791 113.108 38.2441 111.977 39.3102L113.188 40.6389ZM116.725 38.374C117.687 37.9531 118.979 37.6921 120.636 37.6297L120.57 35.8193C118.782 35.8866 117.253 36.1707 116.021 36.7099L116.725 38.374ZM121.494 36.7245V35.8683H119.712V36.7245H121.494ZM121.494 35.8683C121.494 34.8132 121.447 33.9053 121.348 33.1541C121.25 32.4167 121.094 31.7666 120.84 31.2676L119.257 32.1007C119.373 32.3283 119.494 32.7389 119.582 33.3962C119.667 34.0396 119.712 34.8605 119.712 35.8683H121.494ZM120.84 31.2676C120.405 30.4155 119.816 29.7393 119.051 29.2998L118.174 30.877C118.584 31.1122 118.951 31.4997 119.257 32.1007L120.84 31.2676ZM119.064 29.3072C118.319 28.8629 117.469 28.6572 116.545 28.6572V30.4688C117.204 30.4688 117.732 30.6134 118.162 30.8696L119.064 29.3072ZM116.545 28.6572C115.088 28.6572 113.764 28.9471 112.597 29.5547L113.41 31.167C114.286 30.7107 115.323 30.4688 116.545 30.4688V28.6572ZM113.572 31.0588C114.976 29.8777 115.95 29.146 116.526 28.813L115.645 27.2381C114.92 27.6577 113.839 28.4828 112.436 29.6629L113.572 31.0588ZM116.522 28.8152C117.781 28.0959 118.842 27.7832 119.723 27.7832V25.9715C118.435 25.9715 117.07 26.4243 115.649 27.2359L116.522 28.8152ZM119.723 27.7832C120.763 27.7832 121.398 27.9421 121.744 28.147L122.64 26.5808C121.889 26.1369 120.878 25.9715 119.723 25.9715V27.7832ZM121.744 28.147C122.17 28.3984 122.494 28.7213 122.733 29.1199L124.255 28.1767C123.856 27.5114 123.312 26.9781 122.64 26.5808L121.744 28.147ZM122.729 29.1128C123.159 29.8453 123.426 30.9988 123.426 32.6767H125.208C125.208 30.8517 124.926 29.3195 124.259 28.1839L122.729 29.1128ZM123.426 32.6767V40.5972H125.208V32.6767H123.426ZM114.805 44.1388C115.212 44.4317 115.673 44.6372 116.176 44.7649L116.608 43.0073C116.294 42.9275 116.041 42.8086 115.835 42.6605L114.805 44.1388ZM116.176 44.7649C116.693 44.8962 117.387 44.9477 118.211 44.9477V43.1361C117.426 43.1361 116.908 43.0836 116.608 43.0073L116.176 44.7649ZM118.211 44.9477C119.161 44.9477 120.091 44.7165 120.992 44.2734L120.215 42.6427C119.534 42.978 118.868 43.1361 118.211 43.1361V44.9477ZM121.494 43.458V39.3712H119.712V43.458H121.494ZM120.603 38.4654H117.502V40.277H120.603V38.4654ZM117.502 38.4654C116.354 38.4654 115.327 38.5458 114.431 38.714L114.754 40.4955C115.517 40.3524 116.43 40.277 117.502 40.277V38.4654ZM113.74 39.3426C113.552 39.9729 113.453 40.5934 113.453 41.2005H115.235C115.235 40.7957 115.301 40.3524 115.445 39.8669L113.74 39.3426ZM113.453 41.2005C113.453 41.8047 113.552 42.376 113.784 42.8859L115.401 42.123C115.302 41.9063 115.235 41.6084 115.235 41.2005H113.453ZM113.796 42.9095C114.033 43.3929 114.364 43.8026 114.785 44.1243L115.855 42.675C115.664 42.5295 115.509 42.3425 115.39 42.0993L113.796 42.9095ZM140.972 42.7769L141.704 43.2925L141.711 43.283L140.972 42.7769ZM140.283 43.8277L139.533 43.3379L139.528 43.3451L140.283 43.8277ZM139.689 44.6646L139.019 44.0681L139.008 44.0805L138.998 44.0934L139.689 44.6646ZM139.134 45.2095L139.639 45.9559L139.654 45.9453L139.669 45.9341L139.134 45.2095ZM138.426 45.696L138.895 46.4662L138.907 46.4581L138.92 46.4497L138.426 45.696ZM137.583 46.2214L138.037 47.0013L138.047 46.9952L137.583 46.2214ZM136.798 46.7079L136.323 45.9421L136.312 45.9493L136.3 45.9568L136.798 46.7079ZM135.899 47.3891L135.033 47.6039L136.763 47.6088L135.899 47.3891ZM134.272 40.9087L133.41 41.1407L133.411 41.142L134.272 40.9087ZM132.702 35.8488L131.875 36.1852L131.876 36.1883L132.702 35.8488ZM131.668 33.2605L130.839 33.5931L130.843 33.6026L130.847 33.6121L131.668 33.2605ZM130.96 31.8399L130.198 32.31L130.202 32.316L130.205 32.3219L130.96 31.8399ZM127.208 30.7306L126.529 30.1442L127.659 31.5118L127.208 30.7306ZM136.932 34.759L137.781 34.4825L137.781 34.4816L136.932 34.759ZM138.387 39.8188L137.523 40.0385L137.525 40.0485L138.387 39.8188ZM139.096 42.5822L138.233 42.8072L138.743 44.8316L139.847 43.0688L139.096 42.5822ZM142.886 34.5644L142.033 34.303L142.032 34.3071L142.886 34.5644ZM140.838 30.3998L140.519 29.5537L141.134 31.254L140.838 30.3998ZM141.986 29.6797L142.591 30.3453L142.597 30.3391L142.604 30.3327L141.986 29.6797ZM146.13 29.3489C146.13 30.5907 145.686 32.2864 144.698 34.4792C143.718 36.6562 142.234 39.2515 140.233 42.2707L141.711 43.283C143.742 40.2175 145.283 37.5324 146.319 35.2335C147.347 32.9502 147.912 30.9743 147.912 29.3489H146.13ZM140.239 42.2613C140.003 42.6075 139.768 42.9663 139.533 43.3379L141.032 44.3176C141.257 43.9625 141.481 43.6208 141.704 43.2925L140.239 42.2613ZM139.528 43.3451C139.325 43.6731 139.155 43.9091 139.019 44.0681L140.36 45.2611C140.58 45.0049 140.806 44.683 141.037 44.3103L139.528 43.3451ZM138.998 44.0934C138.876 44.2452 138.743 44.3749 138.599 44.4848L139.669 45.9341C139.933 45.7327 140.17 45.499 140.381 45.2358L138.998 44.0934ZM138.629 44.4631C138.429 44.6027 138.197 44.7624 137.931 44.9423L138.92 46.4497C139.19 46.2664 139.43 46.1017 139.639 45.9559L138.629 44.4631ZM137.957 44.9258C137.691 45.0932 137.412 45.2672 137.12 45.4477L138.047 46.9952C138.342 46.8125 138.625 46.6361 138.895 46.4662L137.957 44.9258ZM137.13 45.4416C136.843 45.6142 136.573 45.781 136.323 45.9421L137.274 47.4738C137.508 47.3235 137.762 47.1661 138.037 47.0013L137.13 45.4416ZM136.3 45.9568C136.004 46.1602 135.768 46.327 135.601 46.4534C135.52 46.5152 135.44 46.5779 135.374 46.6365C135.343 46.6646 135.298 46.706 135.254 46.7561C135.232 46.7811 135.199 46.8211 135.164 46.873C135.137 46.9149 135.071 47.0195 135.034 47.1694L136.763 47.6088C136.728 47.7521 136.666 47.849 136.645 47.8817C136.617 47.9244 136.591 47.9537 136.58 47.9667C136.557 47.9928 136.542 48.0049 136.55 47.9982C136.562 47.987 136.597 47.9581 136.665 47.9064C136.798 47.8058 137.006 47.658 137.296 47.4591L136.3 45.9568ZM136.764 47.1743C136.24 44.9885 135.696 42.8222 135.133 40.6752L133.411 41.142C133.971 43.2765 134.511 45.4304 135.033 47.6039L136.764 47.1743ZM135.133 40.6766C134.567 38.5077 134.033 36.7797 133.528 35.5093L131.876 36.1883C132.341 37.3571 132.853 39.0023 133.41 41.1407L135.133 40.6766ZM133.529 35.5124C133.044 34.28 132.697 33.4104 132.489 32.9091L130.847 33.6121C131.048 34.0967 131.39 34.9526 131.875 36.1852L133.529 35.5124ZM132.497 32.9279C132.285 32.3822 132.024 31.8588 131.714 31.3579L130.205 32.3219C130.457 32.7293 130.668 33.1528 130.839 33.5931L132.497 32.9279ZM131.722 31.3698C131.001 30.164 130.03 29.2994 128.758 29.2994V31.111C129.12 31.111 129.617 31.3362 130.198 32.31L131.722 31.3698ZM128.758 29.2994C128.091 29.2994 127.415 29.5569 126.757 29.9494L127.659 31.5118C128.175 31.2037 128.532 31.111 128.758 31.111V29.2994ZM127.887 31.317C129.608 29.2573 131.188 28.4059 132.625 28.4059V26.5943C130.438 26.5943 128.407 27.8967 126.529 30.1442L127.887 31.317ZM132.625 28.4059C132.681 28.4059 132.824 28.4284 133.068 28.6414C133.316 28.8573 133.611 29.2221 133.944 29.7827C134.609 30.903 135.326 32.6396 136.084 35.0365L137.781 34.4816C137.008 32.0392 136.241 30.1463 135.47 28.8469C135.085 28.1977 134.675 27.6553 134.228 27.2662C133.779 26.8744 133.24 26.5943 132.625 26.5943V28.4059ZM136.084 35.0355C136.719 37.0493 137.197 38.7155 137.523 40.0385L139.252 39.5991C138.913 38.2236 138.422 36.5165 137.781 34.4825L136.084 35.0355ZM137.525 40.0485C137.87 41.385 138.106 42.304 138.233 42.8072L139.959 42.3573C139.83 41.8486 139.594 40.9253 139.249 39.5892L137.525 40.0485ZM139.847 43.0688C141.69 40.127 142.995 37.3769 143.74 34.8218L142.032 34.3071C141.347 36.656 140.126 39.2511 138.344 42.0957L139.847 43.0688ZM143.739 34.8258C144.04 33.8126 144.198 32.8477 144.198 31.9372H142.416C142.416 32.6354 142.294 33.422 142.033 34.303L143.739 34.8258ZM144.198 31.9372C144.198 31.2561 144.073 30.579 143.679 30.0567C143.249 29.4893 142.623 29.2604 141.967 29.2604V31.0721C142.205 31.0721 142.249 31.1384 142.266 31.1613C142.317 31.2292 142.416 31.4377 142.416 31.9372H144.198ZM141.967 29.2604C141.513 29.2604 141.032 29.3695 140.541 29.5456L141.134 31.254C141.511 31.1186 141.783 31.0721 141.967 31.0721V29.2604ZM141.156 31.2459C141.692 31.0373 142.173 30.7371 142.591 30.3453L141.382 29.0142C141.136 29.2451 140.851 29.4249 140.519 29.5537L141.156 31.2459ZM142.604 30.3327C142.931 30.0125 143.259 29.6989 143.586 29.3918L142.377 28.0606C142.041 28.3762 141.705 28.6983 141.369 29.0268L142.604 30.3327ZM143.586 29.3918C144.307 28.715 144.981 28.4449 145.623 28.4449V26.6332C144.428 26.6332 143.341 27.1546 142.377 28.0606L143.586 29.3918ZM145.623 28.4449C145.887 28.4449 145.946 28.519 145.97 28.5508C146.027 28.6243 146.13 28.8394 146.13 29.3489H147.912C147.912 28.6518 147.781 27.962 147.372 27.4322C146.931 26.8607 146.292 26.6332 145.623 26.6332V28.4449ZM166.892 32.1318L166.057 32.4486L166.059 32.4555L166.062 32.4623L166.892 32.1318ZM167.025 37.8922L167.876 38.1603L167.877 38.1569L167.025 37.8922ZM165.838 40.5584L165.077 40.0888L165.071 40.0975L165.838 40.5584ZM161.818 44.9176L162.314 45.6704L162.315 45.6694L161.818 44.9176ZM151.252 44.217L151.914 43.6119L151.911 43.6073L151.252 44.217ZM150.753 33.1827L151.517 33.6504L151.52 33.6449L150.753 33.1827ZM157.377 27.5585L157.666 28.4155L157.677 28.4115L157.377 27.5585ZM163.043 27.7531L162.645 28.5633L162.652 28.5668L162.658 28.5701L163.043 27.7531ZM153.319 38.3982L152.466 38.6594L152.47 38.6719L153.319 38.3982ZM154.774 41.2589L155.483 40.7107L155.48 40.7067L154.774 41.2589ZM163.082 42.1152L163.894 42.4877L163.9 42.476L163.082 42.1152ZM161.646 32.3264L160.946 32.8865L160.95 32.8923L161.646 32.3264ZM164.71 30.1416C165.287 30.8084 165.736 31.575 166.057 32.4486L167.726 31.815C167.332 30.7425 166.773 29.7836 166.048 28.9454L164.71 30.1416ZM166.062 32.4623C166.394 33.3235 166.556 34.1782 166.556 35.0315H168.338C168.338 33.9387 168.129 32.8603 167.721 31.8013L166.062 32.4623ZM166.556 35.0315C166.556 35.9145 166.428 36.7789 166.173 37.6275L167.877 38.1569C168.184 37.1373 168.338 36.0945 168.338 35.0315H166.556ZM166.174 37.6241C165.916 38.472 165.551 39.2932 165.077 40.0888L166.6 41.0279C167.147 40.1108 167.573 39.1546 167.876 38.1603L166.174 37.6241ZM165.071 40.0975C164.607 40.8957 164.053 41.6479 163.406 42.3542L164.71 43.5887C165.442 42.79 166.074 41.9335 166.606 41.0192L165.071 40.0975ZM163.406 42.3542C162.775 43.0433 162.081 43.647 161.322 44.1657L162.315 45.6694C163.189 45.0724 163.988 44.3786 164.71 43.5887L163.406 42.3542ZM161.323 44.1647C159.707 45.2637 158.122 45.7827 156.554 45.7827V47.5943C158.534 47.5943 160.458 46.9327 162.314 45.6704L161.323 44.1647ZM156.554 45.7827C154.74 45.7827 153.209 45.0784 151.914 43.6119L150.589 44.822C152.203 46.651 154.208 47.5943 156.554 47.5943V45.7827ZM151.911 43.6073C150.642 42.1903 150.017 40.552 150.017 38.6512H148.235C148.235 41.0058 149.028 43.0781 150.592 44.8266L151.911 43.6073ZM150.017 38.6512C150.017 37.0267 150.501 35.3636 151.517 33.6504L149.991 32.715C148.837 34.6604 148.235 36.643 148.235 38.6512H150.017ZM151.52 33.6449C153.042 31.0386 155.087 29.3133 157.666 28.4155L157.089 26.7015C154.078 27.7497 151.708 29.7739 149.987 32.7204L151.52 33.6449ZM157.677 28.4115C158.47 28.1238 159.312 27.9778 160.211 27.9778V26.1662C159.117 26.1662 158.071 26.3445 157.078 26.7055L157.677 28.4115ZM160.211 27.9778C161.067 27.9778 161.875 28.1718 162.645 28.5633L163.442 26.9429C162.426 26.4262 161.345 26.1662 160.211 26.1662V27.9778ZM162.658 28.5701C163.459 28.9595 164.14 29.4826 164.71 30.1416L166.048 28.9454C165.316 28.0994 164.44 27.429 163.428 26.9361L162.658 28.5701ZM156.324 28.7739C155.536 28.7739 154.808 28.9705 154.175 29.3972C153.548 29.8213 153.072 30.4348 152.724 31.1793L154.334 31.9556C154.574 31.4416 154.858 31.1112 155.161 30.9061C155.462 30.7037 155.836 30.5856 156.324 30.5856V28.7739ZM152.724 31.1793C152.2 32.3026 151.949 33.5541 151.949 34.9147H153.731C153.731 33.7843 153.939 32.8043 154.334 31.9556L152.724 31.1793ZM151.949 34.9147C151.949 36.2393 152.119 37.4893 152.466 38.6594L154.172 38.137C153.881 37.1534 153.731 36.0811 153.731 34.9147H151.949ZM152.47 38.6719C152.831 39.8315 153.363 40.8802 154.067 41.8112L155.48 40.7067C154.908 39.951 154.47 39.0927 154.168 38.1244L152.47 38.6719ZM154.065 41.8071C155.64 43.9141 157.721 45.006 160.249 45.006V43.1944C158.309 43.1944 156.74 42.3922 155.483 40.7107L154.065 41.8071ZM160.249 45.006C161.055 45.006 161.799 44.7985 162.439 44.3498C163.075 43.9048 163.55 43.2633 163.894 42.4877L162.27 41.7428C162.027 42.2906 161.737 42.6415 161.428 42.8581C161.124 43.0711 160.744 43.1944 160.249 43.1944V45.006ZM163.9 42.476C164.377 41.3561 164.604 40.0943 164.604 38.7095H162.822C162.822 39.8936 162.629 40.9022 162.265 41.7544L163.9 42.476ZM164.604 38.7095C164.604 36.0252 163.861 33.6914 162.342 31.7606L160.95 32.8923C162.188 34.4644 162.822 36.3859 162.822 38.7095H164.604ZM162.347 31.7663C160.814 29.7866 158.783 28.7739 156.324 28.7739V30.5856C158.23 30.5856 159.747 31.3373 160.946 32.8865L162.347 31.7663ZM179.468 43.9445L180.02 44.656L179.294 43.0563L179.468 43.9445ZM177.075 45.8517L176.603 45.0835L176.597 45.0874L176.591 45.0915L177.075 45.8517ZM171.964 43.7889L171.074 43.833L171.075 43.8407V43.8483L171.964 43.7889ZM170.739 17.9449L170.232 18.6896L170.24 18.6951L170.247 18.7004L170.739 17.9449ZM168.959 17.6335L169.039 18.5356L169.079 18.5319L169.118 18.5247L168.959 17.6335ZM168.595 17.6724L168.086 16.9284L168.706 18.5712L168.595 17.6724ZM172.079 15.3371L172.494 16.1388L172.502 16.1341L172.079 15.3371ZM174.051 14.3057L174.443 15.1189L174.449 15.1159L174.051 14.3057ZM175.64 13.4883H176.531V12L175.231 12.6838L175.64 13.4883ZM175.64 41.8233H174.749V41.8492L175.64 41.8233ZM175.87 43.0104L175.049 43.3633L175.054 43.3773L175.061 43.3909L175.87 43.0104ZM178.917 43.233C178.486 43.5785 178.073 43.9249 177.678 44.2719L178.846 45.641C179.218 45.3134 179.609 44.9851 180.02 44.656L178.917 43.233ZM177.678 44.2719C177.329 44.5801 176.97 44.8502 176.603 45.0835L177.547 46.6198C177.997 46.3342 178.429 46.0075 178.846 45.641L177.678 44.2719ZM176.591 45.0915C175.813 45.6044 175.04 45.8411 174.261 45.8411V47.6527C175.422 47.6527 176.526 47.2926 177.56 46.6119L176.591 45.0915ZM174.261 45.8411C173.79 45.8411 173.523 45.6901 173.334 45.4461C173.11 45.1579 172.911 44.6293 172.853 43.7294L171.075 43.8483C171.144 44.9204 171.393 45.8708 171.935 46.5686C172.511 47.3107 173.328 47.6527 174.261 47.6527V45.8411ZM172.854 43.7447C172.829 43.2267 172.817 42.7225 172.817 42.232H171.035C171.035 42.7534 171.048 43.2871 171.074 43.833L172.854 43.7447ZM172.817 42.232V21.4089H171.035V42.232H172.817ZM172.817 21.4089C172.817 19.5751 172.422 17.9905 171.231 17.1893L170.247 18.7004C170.638 18.9631 171.035 19.6878 171.035 21.4089H172.817ZM171.246 17.2001C170.812 16.8947 170.319 16.6888 169.782 16.6888V18.5004C169.857 18.5004 170.002 18.528 170.232 18.6896L171.246 17.2001ZM169.782 16.6888C169.385 16.6888 169.031 16.6994 168.799 16.7423L169.118 18.5247C169.117 18.5248 169.122 18.524 169.131 18.5228C169.141 18.5216 169.154 18.52 169.171 18.5184C169.206 18.5151 169.252 18.5119 169.312 18.5092C169.43 18.5036 169.585 18.5004 169.782 18.5004V16.6888ZM168.878 16.7314C168.731 16.745 168.6 16.759 168.485 16.7736L168.706 18.5712C168.795 18.5599 168.905 18.5479 169.039 18.5356L168.878 16.7314ZM169.103 18.4164C170.958 17.1067 172.068 16.3664 172.494 16.1388L171.664 14.5356C171.12 14.8269 169.907 15.6434 168.086 16.9284L169.103 18.4164ZM172.502 16.1341C173.13 15.7897 173.777 15.4512 174.443 15.1189L173.658 13.4924C172.972 13.8348 172.305 14.184 171.656 14.5401L172.502 16.1341ZM174.449 15.1159C175.14 14.765 175.674 14.4904 176.049 14.2929L175.231 12.6838C174.865 12.8756 174.341 13.1458 173.653 13.4955L174.449 15.1159ZM174.749 13.4883V40.3442H176.531V13.4883H174.749ZM174.749 40.3442C174.749 40.3453 174.749 40.3463 174.749 40.3474C174.749 40.3484 174.749 40.3495 174.749 40.3505C174.749 40.3516 174.749 40.3526 174.749 40.3536C174.749 40.3547 174.749 40.3557 174.749 40.3567C174.749 40.3577 174.749 40.3588 174.749 40.3598C174.749 40.3609 174.749 40.3619 174.749 40.363C174.749 40.364 174.749 40.365 174.749 40.3661C174.749 40.3671 174.749 40.3682 174.749 40.3692C174.749 40.3702 174.749 40.3712 174.749 40.3723C174.749 40.3733 174.749 40.3743 174.749 40.3754C174.749 40.3764 174.749 40.3775 174.749 40.3785C174.749 40.3796 174.749 40.3806 174.749 40.3816C174.749 40.3827 174.749 40.3836 174.749 40.3847C174.749 40.3857 174.749 40.3868 174.749 40.3878C174.749 40.3888 174.749 40.3899 174.749 40.3909C174.749 40.392 174.749 40.393 174.749 40.3941C174.749 40.3951 174.749 40.3961 174.749 40.3971C174.749 40.3981 174.749 40.3992 174.749 40.4002C174.749 40.4012 174.749 40.4023 174.749 40.4033C174.749 40.4044 174.749 40.4054 174.749 40.4064C174.749 40.4075 174.749 40.4085 174.749 40.4096C174.749 40.4105 174.749 40.4115 174.749 40.4126C174.749 40.4136 174.749 40.4147 174.749 40.4157C174.749 40.4167 174.749 40.4178 174.749 40.4188C174.749 40.4199 174.749 40.4209 174.749 40.4219C174.749 40.423 174.749 40.424 174.749 40.425C174.749 40.426 174.749 40.427 174.749 40.4281C174.749 40.4291 174.749 40.4301 174.749 40.4312C174.749 40.4322 174.749 40.4333 174.749 40.4343C174.749 40.4353 174.749 40.4364 174.749 40.4374C174.749 40.4384 174.749 40.4394 174.749 40.4404C174.749 40.4415 174.749 40.4425 174.749 40.4435C174.749 40.4446 174.749 40.4456 174.749 40.4466C174.749 40.4477 174.749 40.4487 174.749 40.4497C174.749 40.4508 174.749 40.4518 174.749 40.4529C174.749 40.4538 174.749 40.4548 174.749 40.4559C174.749 40.4569 174.749 40.4579 174.749 40.459C174.749 40.46 174.749 40.461 174.749 40.4621C174.749 40.4631 174.749 40.4641 174.749 40.4652C174.749 40.4662 174.749 40.4672 174.749 40.4682C174.749 40.4692 174.749 40.4702 174.749 40.4713C174.749 40.4723 174.749 40.4733 174.749 40.4744C174.749 40.4754 174.749 40.4764 174.749 40.4775C174.749 40.4785 174.749 40.4795 174.749 40.4806C174.749 40.4816 174.749 40.4826 174.749 40.4837C174.749 40.4846 174.749 40.4856 174.749 40.4867C174.749 40.4877 174.749 40.4887 174.749 40.4898C174.749 40.4908 174.749 40.4918 174.749 40.4929C174.749 40.4939 174.749 40.4949 174.749 40.4959C174.749 40.497 174.749 40.498 174.749 40.499C174.749 40.5 174.749 40.501 174.749 40.502C174.749 40.5031 174.749 40.5041 174.749 40.5051C174.749 40.5062 174.749 40.5072 174.749 40.5082C174.749 40.5092 174.749 40.5103 174.749 40.5113C174.749 40.5123 174.749 40.5134 174.749 40.5144C174.749 40.5154 174.749 40.5163 174.749 40.5174C174.749 40.5184 174.749 40.5194 174.749 40.5205C174.749 40.5215 174.749 40.5225 174.749 40.5235C174.749 40.5246 174.749 40.5256 174.749 40.5266C174.749 40.5277 174.749 40.5287 174.749 40.5297C174.749 40.5307 174.749 40.5317 174.749 40.5327C174.749 40.5337 174.749 40.5347 174.749 40.5358C174.749 40.5368 174.749 40.5378 174.749 40.5389C174.749 40.5399 174.749 40.5409 174.749 40.5419C174.749 40.543 174.749 40.544 174.749 40.545C174.749 40.546 174.749 40.5471 174.749 40.5481C174.749 40.549 174.749 40.55 174.749 40.5511C174.749 40.5521 174.749 40.5531 174.749 40.5541C174.749 40.5552 174.749 40.5562 174.749 40.5572C174.749 40.5582 174.749 40.5593 174.749 40.5603C174.749 40.5613 174.749 40.5623 174.749 40.5634C174.749 40.5644 174.749 40.5654 174.749 40.5663C174.749 40.5673 174.749 40.5684 174.749 40.5694C174.749 40.5704 174.749 40.5714 174.749 40.5725C174.749 40.5735 174.749 40.5745 174.749 40.5755C174.749 40.5765 174.749 40.5776 174.749 40.5786C174.749 40.5796 174.749 40.5806 174.749 40.5817C174.749 40.5827 174.749 40.5837 174.749 40.5846C174.749 40.5856 174.749 40.5867 174.749 40.5877C174.749 40.5887 174.749 40.5897 174.749 40.5907C174.749 40.5918 174.749 40.5928 174.749 40.5938C174.749 40.5948 174.749 40.5959 174.749 40.5969C174.749 40.5979 174.749 40.5989 174.749 40.5999C174.749 40.601 174.749 40.6019 174.749 40.6029C174.749 40.6039 174.749 40.6049 174.749 40.6059C174.749 40.607 174.749 40.608 174.749 40.609C174.749 40.61 174.749 40.611 174.749 40.6121C174.749 40.6131 174.749 40.6141 174.749 40.6151C174.749 40.6161 174.749 40.6172 174.749 40.6182C174.749 40.6192 174.749 40.6202 174.749 40.6212C174.749 40.6221 174.749 40.6232 174.749 40.6242C174.749 40.6252 174.749 40.6262 174.749 40.6272C174.749 40.6282 174.749 40.6293 174.749 40.6303C174.749 40.6313 174.749 40.6323 174.749 40.6333C174.749 40.6343 174.749 40.6354 174.749 40.6364C174.749 40.6374 174.749 40.6384 174.749 40.6394C174.749 40.6404 174.749 40.6413 174.749 40.6424C174.749 40.6434 174.749 40.6444 174.749 40.6454C174.749 40.6464 174.749 40.6474 174.749 40.6485C174.749 40.6495 174.749 40.6505 174.749 40.6515C174.749 40.6525 174.749 40.6535 174.749 40.6545C174.749 40.6556 174.749 40.6566 174.749 40.6576C174.749 40.6586 174.749 40.6596 174.749 40.6606C174.749 40.6615 174.749 40.6625 174.749 40.6636C174.749 40.6646 174.749 40.6656 174.749 40.6666C174.749 40.6676 174.749 40.6686 174.749 40.6696C174.749 40.6706 174.749 40.6717 174.749 40.6727C174.749 40.6737 174.749 40.6747 174.749 40.6757C174.749 40.6767 174.749 40.6777 174.749 40.6787C174.749 40.6798 174.749 40.6808 174.749 40.6817C174.749 40.6827 174.749 40.6837 174.749 40.6847C174.749 40.6857 174.749 40.6867 174.749 40.6877C174.749 40.6887 174.749 40.6898 174.749 40.6908C174.749 40.6918 174.749 40.6928 174.749 40.6938C174.749 40.6948 174.749 40.6958 174.749 40.6968C174.749 40.6978 174.749 40.6988 174.749 40.6999C174.749 40.7009 174.749 40.7019 174.749 40.7029C174.749 40.7038 174.749 40.7048 174.749 40.7058C174.749 40.7068 174.749 40.7078 174.749 40.7088C174.749 40.7098 174.749 40.7108 174.749 40.7118C174.749 40.7129 174.749 40.7139 174.749 40.7149C174.749 40.7159 174.749 40.7169 174.749 40.7179C174.749 40.7189 174.749 40.7199 174.749 40.7209C174.749 40.7219 174.749 40.7229 174.749 40.7239C174.749 40.7249 174.749 40.7259 174.749 40.7269C174.749 40.7279 174.749 40.7289 174.749 40.7299C174.749 40.7309 174.749 40.7319 174.749 40.7329C174.749 40.7339 174.749 40.7349 174.749 40.7359C174.749 40.7369 174.749 40.7379 174.749 40.7389C174.749 40.7399 174.749 40.7409 174.749 40.7419C174.749 40.7429 174.749 40.7439 174.749 40.7449C174.749 40.7459 174.749 40.7469 174.749 40.748C174.749 40.749 174.749 40.75 174.749 40.751C174.749 40.7519 174.749 40.7529 174.749 40.7539C174.749 40.7549 174.749 40.7559 174.749 40.7569C174.749 40.7579 174.749 40.7589 174.749 40.7599C174.749 40.7609 174.749 40.7619 174.749 40.7629C174.749 40.7639 174.749 40.7649 174.749 40.7659C174.749 40.7669 174.749 40.7679 174.749 40.7689C174.749 40.7699 174.749 40.7709 174.749 40.7719C174.749 40.7729 174.749 40.7739 174.749 40.7749C174.749 40.7759 174.749 40.7769 174.749 40.7779C174.749 40.7789 174.749 40.7798 174.749 40.7808C174.749 40.7818 174.749 40.7828 174.749 40.7838C174.749 40.7848 174.749 40.7858 174.749 40.7868C174.749 40.7878 174.749 40.7888 174.749 40.7898C174.749 40.7908 174.749 40.7918 174.749 40.7928C174.749 40.7938 174.749 40.7948 174.749 40.7958C174.749 40.7968 174.749 40.7978 174.749 40.7988C174.749 40.7998 174.749 40.8008 174.749 40.8018C174.749 40.8028 174.749 40.8038 174.749 40.8048C174.749 40.8058 174.749 40.8068 174.749 40.8077C174.749 40.8087 174.749 40.8097 174.749 40.8107C174.749 40.8117 174.749 40.8127 174.749 40.8137C174.749 40.8147 174.749 40.8157 174.749 40.8166C174.749 40.8176 174.749 40.8186 174.749 40.8196C174.749 40.8206 174.749 40.8216 174.749 40.8226C174.749 40.8236 174.749 40.8246 174.749 40.8256C174.749 40.8266 174.749 40.8276 174.749 40.8286C174.749 40.8296 174.749 40.8306 174.749 40.8316C174.749 40.8326 174.749 40.8336 174.749 40.8346C174.749 40.8356 174.749 40.8365 174.749 40.8375C174.749 40.8385 174.749 40.8395 174.749 40.8404C174.749 40.8414 174.749 40.8424 174.749 40.8434C174.749 40.8444 174.749 40.8454 174.749 40.8464C174.749 40.8474 174.749 40.8484 174.749 40.8494C174.749 40.8504 174.749 40.8513 174.749 40.8523C174.749 40.8533 174.749 40.8543 174.749 40.8553C174.749 40.8563 174.749 40.8573 174.749 40.8583C174.749 40.8593 174.749 40.8603 174.749 40.8613C174.749 40.8623 174.749 40.8632 174.749 40.8642C174.749 40.8652 174.749 40.8662 174.749 40.8672C174.749 40.8682 174.749 40.8692 174.749 40.8702C174.749 40.8712 174.749 40.8722 174.749 40.8731C174.749 40.8741 174.749 40.875 174.749 40.876C174.749 40.877 174.749 40.878 174.749 40.879C174.749 40.88 174.749 40.881 174.749 40.882C174.749 40.8829 174.749 40.8839 174.749 40.8849C174.749 40.8859 174.749 40.8869 174.749 40.8879C174.749 40.8889 174.749 40.8899 174.749 40.8909C174.749 40.8918 174.749 40.8928 174.749 40.8938C174.749 40.8948 174.749 40.8958 174.749 40.8968C174.749 40.8978 174.749 40.8988 174.749 40.8997C174.749 40.9007 174.749 40.9017 174.749 40.9027C174.749 40.9037 174.749 40.9047 174.749 40.9057C174.749 40.9066 174.749 40.9076 174.749 40.9086C174.749 40.9096 174.749 40.9106 174.749 40.9116C174.749 40.9125 174.749 40.9135 174.749 40.9145C174.749 40.9154 174.749 40.9164 174.749 40.9174C174.749 40.9184 174.749 40.9194 174.749 40.9203C174.749 40.9213 174.749 40.9223 174.749 40.9233C174.749 40.9243 174.749 40.9253 174.749 40.9262C174.749 40.9272 174.749 40.9282 174.749 40.9292C174.749 40.9302 174.749 40.9312 174.749 40.9321C174.749 40.9331 174.749 40.9341 174.749 40.9351C174.749 40.9361 174.749 40.9371 174.749 40.938C174.749 40.939 174.749 40.94 174.749 40.941C174.749 40.942 174.749 40.943 174.749 40.9439C174.749 40.9449 174.749 40.9459 174.749 40.9469C174.749 40.9479 174.749 40.9488 174.749 40.9498C174.749 40.9508 174.749 40.9518 174.749 40.9528C174.749 40.9538 174.749 40.9547 174.749 40.9557C174.749 40.9567 174.749 40.9577 174.749 40.9587C174.749 40.9596 174.749 40.9606 174.749 40.9616C174.749 40.9626 174.749 40.9635 174.749 40.9645C174.749 40.9655 174.749 40.9664 174.749 40.9674C174.749 40.9684 174.749 40.9693 174.749 40.9703C174.749 40.9713 174.749 40.9723 174.749 40.9733C174.749 40.9742 174.749 40.9752 174.749 40.9762C174.749 40.9772 174.749 40.9781 174.749 40.9791C174.749 40.9801 174.749 40.9811 174.749 40.9821C174.749 40.983 174.749 40.984 174.749 40.985C174.749 40.986 174.749 40.9869 174.749 40.9879C174.749 40.9889 174.749 40.9899 174.749 40.9909C174.749 40.9918 174.749 40.9928 174.749 40.9938C174.749 40.9948 174.749 40.9957 174.749 40.9967C174.749 40.9977 174.749 40.9987 174.749 40.9996C174.749 41.0006 174.749 41.0016 174.749 41.0026C174.749 41.0035 174.749 41.0045 174.749 41.0055C174.749 41.0065 174.749 41.0074 174.749 41.0084C174.749 41.0094 174.749 41.0104 174.749 41.0113C174.749 41.0123 174.749 41.0133 174.749 41.0143C174.749 41.0152 174.749 41.0162 174.749 41.0172C174.749 41.0182 174.749 41.0191 174.749 41.0201C174.749 41.0211 174.749 41.0221 174.749 41.023C174.749 41.024 174.749 41.025 174.749 41.0259C174.749 41.0269 174.749 41.0279 174.749 41.0289C174.749 41.0298 174.749 41.0308 174.749 41.0318C174.749 41.0328 174.749 41.0337 174.749 41.0347C174.749 41.0357 174.749 41.0366 174.749 41.0376C174.749 41.0385 174.749 41.0395 174.749 41.0405C174.749 41.0415 174.749 41.0424 174.749 41.0434C174.749 41.0443 174.749 41.0453 174.749 41.0463C174.749 41.0472 174.749 41.0482 174.749 41.0492C174.749 41.0501 174.749 41.0511 174.749 41.0521C174.749 41.053 174.749 41.054 174.749 41.055C174.749 41.056 174.749 41.0569 174.749 41.0579C174.749 41.0589 174.749 41.0598 174.749 41.0608C174.749 41.0618 174.749 41.0627 174.749 41.0637C174.749 41.0647 174.749 41.0656 174.749 41.0666C174.749 41.0676 174.749 41.0685 174.749 41.0695C174.749 41.0705 174.749 41.0714 174.749 41.0724C174.749 41.0734 174.749 41.0744 174.749 41.0753C174.749 41.0763 174.749 41.0773 174.749 41.0782C174.749 41.0792 174.749 41.0802 174.749 41.0811C174.749 41.0821 174.749 41.0831 174.749 41.084C174.749 41.085 174.749 41.086 174.749 41.0869C174.749 41.0879 174.749 41.0889 174.749 41.0898C174.749 41.0908 174.749 41.0917 174.749 41.0927C174.749 41.0937 174.749 41.0946 174.749 41.0956C174.749 41.0966 174.749 41.0975 174.749 41.0985C174.749 41.0995 174.749 41.1004 174.749 41.1014C174.749 41.1024 174.749 41.1033 174.749 41.1043C174.749 41.1053 174.749 41.1062 174.749 41.1072C174.749 41.1081 174.749 41.1091 174.749 41.1101C174.749 41.111 174.749 41.112 174.749 41.113C174.749 41.1139 174.749 41.1149 174.749 41.1158C174.749 41.1168 174.749 41.1178 174.749 41.1187C174.749 41.1197 174.749 41.1207 174.749 41.1216C174.749 41.1226 174.749 41.1235 174.749 41.1245C174.749 41.1255 174.749 41.1264 174.749 41.1274C174.749 41.1284 174.749 41.1293 174.749 41.1303C174.749 41.1312 174.749 41.1322 174.749 41.1332C174.749 41.1341 174.749 41.1351 174.749 41.136C174.749 41.137 174.749 41.138 174.749 41.1389C174.749 41.1399 174.749 41.1408 174.749 41.1418C174.749 41.1428 174.749 41.1437 174.749 41.1447C174.749 41.1456 174.749 41.1466 174.749 41.1476C174.749 41.1485 174.749 41.1495 174.749 41.1504C174.749 41.1514 174.749 41.1524 174.749 41.1533C174.749 41.1543 174.749 41.1552 174.749 41.1562C174.749 41.1571 174.749 41.1581 174.749 41.1591C174.749 41.16 174.749 41.161 174.749 41.1619C174.749 41.1629 174.749 41.1638 174.749 41.1648C174.749 41.1658 174.749 41.1667 174.749 41.1677C174.749 41.1686 174.749 41.1696 174.749 41.1705C174.749 41.1715 174.749 41.1725 174.749 41.1734C174.749 41.1744 174.749 41.1753 174.749 41.1763C174.749 41.1772 174.749 41.1782 174.749 41.1791C174.749 41.1801 174.749 41.1811 174.749 41.182C174.749 41.183 174.749 41.1839 174.749 41.1849C174.749 41.1858 174.749 41.1868 174.749 41.1877C174.749 41.1887 174.749 41.1897 174.749 41.1906C174.749 41.1916 174.749 41.1925 174.749 41.1935C174.749 41.1944 174.749 41.1954 174.749 41.1963C174.749 41.1973 174.749 41.1982 174.749 41.1992C174.749 41.2001 174.749 41.2011 174.749 41.2021C174.749 41.203 174.749 41.204 174.749 41.2049C174.749 41.2059 174.749 41.2069 174.749 41.2078C174.749 41.2088 174.749 41.2097 174.749 41.2107C174.749 41.2117 174.749 41.2126 174.749 41.2136C174.749 41.2145 174.749 41.2155 174.749 41.2164C174.749 41.2174 174.749 41.2183 174.749 41.2193C174.749 41.2202 174.749 41.2212 174.749 41.2221C174.749 41.2231 174.749 41.224 174.749 41.225C174.749 41.2259 174.749 41.2269 174.749 41.2278C174.749 41.2288 174.749 41.2297 174.749 41.2307C174.749 41.2316 174.749 41.2326 174.749 41.2335C174.749 41.2345 174.749 41.2354 174.749 41.2364C174.749 41.2373 174.749 41.2383 174.749 41.2392C174.749 41.2402 174.749 41.2411 174.749 41.2421C174.749 41.243 174.749 41.244 174.749 41.2449C174.749 41.2459 174.749 41.2468 174.749 41.2478C174.749 41.2487 174.749 41.2497 174.749 41.2506C174.749 41.2516 174.749 41.2525 174.749 41.2534C174.749 41.2544 174.749 41.2553 174.749 41.2563C174.749 41.2572 174.749 41.2582 174.749 41.2591C174.749 41.2601 174.749 41.261 174.749 41.262C174.749 41.2629 174.749 41.2639 174.749 41.2648C174.749 41.2657 174.749 41.2667 174.749 41.2676C174.749 41.2686 174.749 41.2695 174.749 41.2705C174.749 41.2714 174.749 41.2724 174.749 41.2733C174.749 41.2743 174.749 41.2752 174.749 41.2761C174.749 41.2771 174.749 41.278 174.749 41.279C174.749 41.2799 174.749 41.2809 174.749 41.2818C174.749 41.2828 174.749 41.2838 174.749 41.2847C174.749 41.2857 174.749 41.2866 174.749 41.2876C174.749 41.2885 174.749 41.2895 174.749 41.2904C174.749 41.2913 174.749 41.2923 174.749 41.2932C174.749 41.2942 174.749 41.2951 174.749 41.296C174.749 41.297 174.749 41.2979 174.749 41.2989C174.749 41.2998 174.749 41.3008 174.749 41.3017C174.749 41.3026 174.749 41.3036 174.749 41.3045C174.749 41.3055 174.749 41.3064 174.749 41.3073C174.749 41.3083 174.749 41.3092 174.749 41.3102C174.749 41.3111 174.749 41.312 174.749 41.313C174.749 41.3139 174.749 41.3149 174.749 41.3158C174.749 41.3167 174.749 41.3177 174.749 41.3186C174.749 41.3196 174.749 41.3205 174.749 41.3214C174.749 41.3224 174.749 41.3233 174.749 41.3243C174.749 41.3252 174.749 41.3261 174.749 41.3271C174.749 41.328 174.749 41.329 174.749 41.3299C174.749 41.3309 174.749 41.3318 174.749 41.3328C174.749 41.3337 174.749 41.3347 174.749 41.3356C174.749 41.3366 174.749 41.3375 174.749 41.3384C174.749 41.3394 174.749 41.3403 174.749 41.3412C174.749 41.3422 174.749 41.3431 174.749 41.3441C174.749 41.345 174.749 41.3459 174.749 41.3469C174.749 41.3478 174.749 41.3487 174.749 41.3497C174.749 41.3506 174.749 41.3515 174.749 41.3525C174.749 41.3534 174.749 41.3543 174.749 41.3553C174.749 41.3562 174.749 41.3572 174.749 41.3581C174.749 41.359 174.749 41.36 174.749 41.3609C174.749 41.3618 174.749 41.3628 174.749 41.3637C174.749 41.3646 174.749 41.3656 174.749 41.3665C174.749 41.3674 174.749 41.3684 174.749 41.3694C174.749 41.3703 174.749 41.3713 174.749 41.3722C174.749 41.3731 174.749 41.3741 174.749 41.375C174.749 41.3759 174.749 41.3769 174.749 41.3778C174.749 41.3787 174.749 41.3797 174.749 41.3806C174.749 41.3815 174.749 41.3825 174.749 41.3834C174.749 41.3843 174.749 41.3852 174.749 41.3862C174.749 41.3871 174.749 41.388 174.749 41.389C174.749 41.3899 174.749 41.3908 174.749 41.3918C174.749 41.3927 174.749 41.3936 174.749 41.3946C174.749 41.3955 174.749 41.3964 174.749 41.3974C174.749 41.3983 174.749 41.3992 174.749 41.4001C174.749 41.4011 174.749 41.4021 174.749 41.403C174.749 41.404 174.749 41.4049 174.749 41.4058C174.749 41.4067 174.749 41.4077 174.749 41.4086C174.749 41.4095 174.749 41.4105 174.749 41.4114C174.749 41.4123 174.749 41.4133 174.749 41.4142C174.749 41.4151 174.749 41.416 174.749 41.417C174.749 41.4179 174.749 41.4188 174.749 41.4197C174.749 41.4207 174.749 41.4216 174.749 41.4225C174.749 41.4235 174.749 41.4244 174.749 41.4253C174.749 41.4262 174.749 41.4272 174.749 41.4281C174.749 41.429 174.749 41.43 174.749 41.431C174.749 41.4319 174.749 41.4328 174.749 41.4337C174.749 41.4347 174.749 41.4356 174.749 41.4365C174.749 41.4375 174.749 41.4384 174.749 41.4393C174.749 41.4402 174.749 41.4412 174.749 41.4421C174.749 41.443 174.749 41.4439 174.749 41.4449C174.749 41.4458 174.749 41.4467 174.749 41.4476C174.749 41.4486 174.749 41.4495 174.749 41.4504C174.749 41.4513 174.749 41.4522 174.749 41.4532C174.749 41.4541 174.749 41.455 174.749 41.4559C174.749 41.4569 174.749 41.4579 174.749 41.4588C174.749 41.4597 174.749 41.4607 174.749 41.4616C174.749 41.4625 174.749 41.4634 174.749 41.4643C174.749 41.4653 174.749 41.4662 174.749 41.4671C174.749 41.468 174.749 41.469 174.749 41.4699C174.749 41.4708 174.749 41.4717 174.749 41.4726C174.749 41.4736 174.749 41.4745 174.749 41.4754C174.749 41.4763 174.749 41.4772 174.749 41.4782C174.749 41.4791 174.749 41.48 174.749 41.4809C174.749 41.4819 174.749 41.4828 174.749 41.4838C174.749 41.4847 174.749 41.4856 174.749 41.4866C174.749 41.4875 174.749 41.4884 174.749 41.4893C174.749 41.4902 174.749 41.4911 174.749 41.4921C174.749 41.493 174.749 41.4939 174.749 41.4948C174.749 41.4957 174.749 41.4967 174.749 41.4976C174.749 41.4985 174.749 41.4994 174.749 41.5003C174.749 41.5013 174.749 41.5022 174.749 41.5031C174.749 41.504 174.749 41.5049 174.749 41.5059C174.749 41.5069 174.749 41.5078 174.749 41.5087C174.749 41.5096 174.749 41.5105 174.749 41.5114C174.749 41.5124 174.749 41.5133 174.749 41.5142C174.749 41.5151 174.749 41.516 174.749 41.5169C174.749 41.5179 174.749 41.5188 174.749 41.5197C174.749 41.5206 174.749 41.5215 174.749 41.5224C174.749 41.5234 174.749 41.5243 174.749 41.5252C174.749 41.5261 174.749 41.5271 174.749 41.528C174.749 41.5289 174.749 41.5299 174.749 41.5308C174.749 41.5317 174.749 41.5326 174.749 41.5335C174.749 41.5344 174.749 41.5353 174.749 41.5363C174.749 41.5372 174.749 41.5381 174.749 41.539C174.749 41.5399 174.749 41.5408 174.749 41.5417C174.749 41.5427 174.749 41.5436 174.749 41.5445C174.749 41.5454 174.749 41.5463 174.749 41.5473C174.749 41.5482 174.749 41.5491 174.749 41.5501C174.749 41.551 174.749 41.5519 174.749 41.5528C174.749 41.5537 174.749 41.5546 174.749 41.5555C174.749 41.5564 174.749 41.5573 174.749 41.5583C174.749 41.5592 174.749 41.5601 174.749 41.561C174.749 41.5619 174.749 41.5628 174.749 41.5637C174.749 41.5646 174.749 41.5655 174.749 41.5665C174.749 41.5675 174.749 41.5684 174.749 41.5693C174.749 41.5702 174.749 41.5711 174.749 41.572C174.749 41.5729 174.749 41.5738 174.749 41.5747C174.749 41.5757 174.749 41.5766 174.749 41.5775C174.749 41.5784 174.749 41.5793 174.749 41.5802C174.749 41.5811 174.749 41.582 174.749 41.5829C174.749 41.5839 174.749 41.5848 174.749 41.5857C174.749 41.5867 174.749 41.5876 174.749 41.5885C174.749 41.5894 174.749 41.5903 174.749 41.5912C174.749 41.5921 174.749 41.593 174.749 41.5939C174.749 41.5948 174.749 41.5957 174.749 41.5966C174.749 41.5975 174.749 41.5984 174.749 41.5994C174.749 41.6003 174.749 41.6012 174.749 41.6021C174.749 41.6031 174.749 41.604 174.749 41.6049C174.749 41.6058 174.749 41.6067 174.749 41.6076C174.749 41.6085 174.749 41.6094 174.749 41.6103C174.749 41.6112 174.749 41.6121 174.749 41.613C174.749 41.6139 174.749 41.6148 174.749 41.6158C174.749 41.6167 174.749 41.6176 174.749 41.6185C174.749 41.6194 174.749 41.6204 174.749 41.6213C174.749 41.6222 174.749 41.6231 174.749 41.624C174.749 41.6249 174.749 41.6258 174.749 41.6267C174.749 41.6276 174.749 41.6285 174.749 41.6294C174.749 41.6303 174.749 41.6312 174.749 41.6321C174.749 41.633 174.749 41.6339 174.749 41.6348C174.749 41.6358 174.749 41.6367 174.749 41.6376C174.749 41.6385 174.749 41.6394 174.749 41.6403C174.749 41.6412 174.749 41.6421 174.749 41.643C174.749 41.6439 174.749 41.6448 174.749 41.6457C174.749 41.6466 174.749 41.6475 174.749 41.6484C174.749 41.6493 174.749 41.6502 174.749 41.6511C174.749 41.6521 174.749 41.653 174.749 41.6539C174.749 41.6548 174.749 41.6557 174.749 41.6566C174.749 41.6575 174.749 41.6584 174.749 41.6593C174.749 41.6602 174.749 41.6611 174.749 41.662C174.749 41.6629 174.749 41.6638 174.749 41.6647C174.749 41.6656 174.749 41.6666 174.749 41.6675C174.749 41.6684 174.749 41.6693 174.749 41.6702C174.749 41.6711 174.749 41.672 174.749 41.6729C174.749 41.6738 174.749 41.6747 174.749 41.6756C174.749 41.6765 174.749 41.6774 174.749 41.6783C174.749 41.6792 174.749 41.6801 174.749 41.681C174.749 41.682 174.749 41.6829 174.749 41.6838C174.749 41.6847 174.749 41.6856 174.749 41.6865C174.749 41.6874 174.749 41.6882 174.749 41.6891C174.749 41.69 174.749 41.6909 174.749 41.6918C174.749 41.6927 174.749 41.6936 174.749 41.6945C174.749 41.6954 174.749 41.6964 174.749 41.6973C174.749 41.6982 174.749 41.6991 174.749 41.7C174.749 41.7009 174.749 41.7018 174.749 41.7027C174.749 41.7036 174.749 41.7045 174.749 41.7053C174.749 41.7062 174.749 41.7071 174.749 41.708C174.749 41.7089 174.749 41.7098 174.749 41.7108C174.749 41.7117 174.749 41.7126 174.749 41.7135C174.749 41.7144 174.749 41.7153 174.749 41.7162C174.749 41.7171 174.749 41.7179 174.749 41.7188C174.749 41.7197 174.749 41.7206 174.749 41.7215C174.749 41.7224 174.749 41.7233 174.749 41.7243C174.749 41.7252 174.749 41.7261 174.749 41.727C174.749 41.7279 174.749 41.7287 174.749 41.7296C174.749 41.7305 174.749 41.7314 174.749 41.7323C174.749 41.7332 174.749 41.7341 174.749 41.735C174.749 41.7359 174.749 41.7368 174.749 41.7377C174.749 41.7386 174.749 41.7395 174.749 41.7404C174.749 41.7413 174.749 41.7422 174.749 41.7431C174.749 41.744 174.749 41.7449 174.749 41.7457C174.749 41.7466 174.749 41.7475 174.749 41.7484C174.749 41.7493 174.749 41.7502 174.749 41.7512C174.749 41.7521 174.749 41.753 174.749 41.7538C174.749 41.7547 174.749 41.7556 174.749 41.7565C174.749 41.7574 174.749 41.7583 174.749 41.7592C174.749 41.76 174.749 41.7609 174.749 41.7618C174.749 41.7627 174.749 41.7636 174.749 41.7646C174.749 41.7655 174.749 41.7664 174.749 41.7672C174.749 41.7681 174.749 41.769 174.749 41.7699C174.749 41.7708 174.749 41.7717 174.749 41.7726C174.749 41.7734 174.749 41.7743 174.749 41.7752C174.749 41.7762 174.749 41.7771 174.749 41.778C174.749 41.7788 174.749 41.7797 174.749 41.7806C174.749 41.7815 174.749 41.7824 174.749 41.7833C174.749 41.7842 174.749 41.785 174.749 41.7859C174.749 41.7868 174.749 41.7877 174.749 41.7887C174.749 41.7896 174.749 41.7904 174.749 41.7913C174.749 41.7922 174.749 41.7931 174.749 41.794C174.749 41.7949 174.749 41.7957 174.749 41.7966C174.749 41.7975 174.749 41.7984 174.749 41.7993C174.749 41.8002 174.749 41.8011 174.749 41.802C174.749 41.8029 174.749 41.8038 174.749 41.8047C174.749 41.8055 174.749 41.8064 174.749 41.8073C174.749 41.8082 174.749 41.8091 174.749 41.8099C174.749 41.8108 174.749 41.8117 174.749 41.8127C174.749 41.8136 174.749 41.8144 174.749 41.8153C174.749 41.8162 174.749 41.8171 174.749 41.818C174.749 41.8188 174.749 41.8197 174.749 41.8206C174.749 41.8215 174.749 41.8224 174.749 41.8233H176.531C176.531 41.8224 176.531 41.8215 176.531 41.8206C176.531 41.8197 176.531 41.8188 176.531 41.818C176.531 41.8171 176.531 41.8162 176.531 41.8153C176.531 41.8144 176.531 41.8136 176.531 41.8127C176.531 41.8117 176.531 41.8108 176.531 41.8099C176.531 41.8091 176.531 41.8082 176.531 41.8073C176.531 41.8064 176.531 41.8055 176.531 41.8047C176.531 41.8038 176.531 41.8029 176.531 41.802C176.531 41.8011 176.531 41.8002 176.531 41.7993C176.531 41.7984 176.531 41.7975 176.531 41.7966C176.531 41.7957 176.531 41.7949 176.531 41.794C176.531 41.7931 176.531 41.7922 176.531 41.7913C176.531 41.7904 176.531 41.7896 176.531 41.7887C176.531 41.7877 176.531 41.7868 176.531 41.7859C176.531 41.785 176.531 41.7842 176.531 41.7833C176.531 41.7824 176.531 41.7815 176.531 41.7806C176.531 41.7797 176.531 41.7788 176.531 41.778C176.531 41.7771 176.531 41.7762 176.531 41.7752C176.531 41.7743 176.531 41.7734 176.531 41.7726C176.531 41.7717 176.531 41.7708 176.531 41.7699C176.531 41.769 176.531 41.7681 176.531 41.7672C176.531 41.7664 176.531 41.7655 176.531 41.7646C176.531 41.7636 176.531 41.7627 176.531 41.7618C176.531 41.7609 176.531 41.76 176.531 41.7592C176.531 41.7583 176.531 41.7574 176.531 41.7565C176.531 41.7556 176.531 41.7547 176.531 41.7538C176.531 41.753 176.531 41.7521 176.531 41.7512C176.531 41.7502 176.531 41.7493 176.531 41.7484C176.531 41.7475 176.531 41.7466 176.531 41.7457C176.531 41.7449 176.531 41.744 176.531 41.7431C176.531 41.7422 176.531 41.7413 176.531 41.7404C176.531 41.7395 176.531 41.7386 176.531 41.7377C176.531 41.7368 176.531 41.7359 176.531 41.735C176.531 41.7341 176.531 41.7332 176.531 41.7323C176.531 41.7314 176.531 41.7305 176.531 41.7296C176.531 41.7287 176.531 41.7279 176.531 41.727C176.531 41.7261 176.531 41.7252 176.531 41.7243C176.531 41.7233 176.531 41.7224 176.531 41.7215C176.531 41.7206 176.531 41.7197 176.531 41.7188C176.531 41.7179 176.531 41.7171 176.531 41.7162C176.531 41.7153 176.531 41.7144 176.531 41.7135C176.531 41.7126 176.531 41.7117 176.531 41.7108C176.531 41.7098 176.531 41.7089 176.531 41.708C176.531 41.7071 176.531 41.7062 176.531 41.7053C176.531 41.7045 176.531 41.7036 176.531 41.7027C176.531 41.7018 176.531 41.7009 176.531 41.7C176.531 41.6991 176.531 41.6982 176.531 41.6973C176.531 41.6964 176.531 41.6954 176.531 41.6945C176.531 41.6936 176.531 41.6927 176.531 41.6918C176.531 41.6909 176.531 41.69 176.531 41.6891C176.531 41.6882 176.531 41.6874 176.531 41.6865C176.531 41.6856 176.531 41.6847 176.531 41.6838C176.531 41.6829 176.531 41.682 176.531 41.681C176.531 41.6801 176.531 41.6792 176.531 41.6783C176.531 41.6774 176.531 41.6765 176.531 41.6756C176.531 41.6747 176.531 41.6738 176.531 41.6729C176.531 41.672 176.531 41.6711 176.531 41.6702C176.531 41.6693 176.531 41.6684 176.531 41.6675C176.531 41.6666 176.531 41.6656 176.531 41.6647C176.531 41.6638 176.531 41.6629 176.531 41.662C176.531 41.6611 176.531 41.6602 176.531 41.6593C176.531 41.6584 176.531 41.6575 176.531 41.6566C176.531 41.6557 176.531 41.6548 176.531 41.6539C176.531 41.653 176.531 41.6521 176.531 41.6511C176.531 41.6502 176.531 41.6493 176.531 41.6484C176.531 41.6475 176.531 41.6466 176.531 41.6457C176.531 41.6448 176.531 41.6439 176.531 41.643C176.531 41.6421 176.531 41.6412 176.531 41.6403C176.531 41.6394 176.531 41.6385 176.531 41.6376C176.531 41.6367 176.531 41.6358 176.531 41.6348C176.531 41.6339 176.531 41.633 176.531 41.6321C176.531 41.6312 176.531 41.6303 176.531 41.6294C176.531 41.6285 176.531 41.6276 176.531 41.6267C176.531 41.6258 176.531 41.6249 176.531 41.624C176.531 41.6231 176.531 41.6222 176.531 41.6213C176.531 41.6204 176.531 41.6194 176.531 41.6185C176.531 41.6176 176.531 41.6167 176.531 41.6158C176.531 41.6148 176.531 41.6139 176.531 41.613C176.531 41.6121 176.531 41.6112 176.531 41.6103C176.531 41.6094 176.531 41.6085 176.531 41.6076C176.531 41.6067 176.531 41.6058 176.531 41.6049C176.531 41.604 176.531 41.6031 176.531 41.6021C176.531 41.6012 176.531 41.6003 176.531 41.5994C176.531 41.5984 176.531 41.5975 176.531 41.5966C176.531 41.5957 176.531 41.5948 176.531 41.5939C176.531 41.593 176.531 41.5921 176.531 41.5912C176.531 41.5903 176.531 41.5894 176.531 41.5885C176.531 41.5876 176.531 41.5867 176.531 41.5857C176.531 41.5848 176.531 41.5839 176.531 41.5829C176.531 41.582 176.531 41.5811 176.531 41.5802C176.531 41.5793 176.531 41.5784 176.531 41.5775C176.531 41.5766 176.531 41.5757 176.531 41.5747C176.531 41.5738 176.531 41.5729 176.531 41.572C176.531 41.5711 176.531 41.5702 176.531 41.5693C176.531 41.5684 176.531 41.5675 176.531 41.5665C176.531 41.5655 176.531 41.5646 176.531 41.5637C176.531 41.5628 176.531 41.5619 176.531 41.561C176.531 41.5601 176.531 41.5592 176.531 41.5583C176.531 41.5573 176.531 41.5564 176.531 41.5555C176.531 41.5546 176.531 41.5537 176.531 41.5528C176.531 41.5519 176.531 41.551 176.531 41.5501C176.531 41.5491 176.531 41.5482 176.531 41.5473C176.531 41.5463 176.531 41.5454 176.531 41.5445C176.531 41.5436 176.531 41.5427 176.531 41.5417C176.531 41.5408 176.531 41.5399 176.531 41.539C176.531 41.5381 176.531 41.5372 176.531 41.5363C176.531 41.5353 176.531 41.5344 176.531 41.5335C176.531 41.5326 176.531 41.5317 176.531 41.5308C176.531 41.5299 176.531 41.5289 176.531 41.528C176.531 41.5271 176.531 41.5261 176.531 41.5252C176.531 41.5243 176.531 41.5234 176.531 41.5224C176.531 41.5215 176.531 41.5206 176.531 41.5197C176.531 41.5188 176.531 41.5179 176.531 41.5169C176.531 41.516 176.531 41.5151 176.531 41.5142C176.531 41.5133 176.531 41.5124 176.531 41.5114C176.531 41.5105 176.531 41.5096 176.531 41.5087C176.531 41.5078 176.531 41.5069 176.531 41.5059C176.531 41.5049 176.531 41.504 176.531 41.5031C176.531 41.5022 176.531 41.5013 176.531 41.5003C176.531 41.4994 176.531 41.4985 176.531 41.4976C176.531 41.4967 176.531 41.4957 176.531 41.4948C176.531 41.4939 176.531 41.493 176.531 41.4921C176.531 41.4911 176.531 41.4902 176.531 41.4893C176.531 41.4884 176.531 41.4875 176.531 41.4866C176.531 41.4856 176.531 41.4847 176.531 41.4838C176.531 41.4828 176.531 41.4819 176.531 41.4809C176.531 41.48 176.531 41.4791 176.531 41.4782C176.531 41.4772 176.531 41.4763 176.531 41.4754C176.531 41.4745 176.531 41.4736 176.531 41.4726C176.531 41.4717 176.531 41.4708 176.531 41.4699C176.531 41.469 176.531 41.468 176.531 41.4671C176.531 41.4662 176.531 41.4653 176.531 41.4643C176.531 41.4634 176.531 41.4625 176.531 41.4616C176.531 41.4607 176.531 41.4597 176.531 41.4588C176.531 41.4579 176.531 41.4569 176.531 41.4559C176.531 41.455 176.531 41.4541 176.531 41.4532C176.531 41.4522 176.531 41.4513 176.531 41.4504C176.531 41.4495 176.531 41.4486 176.531 41.4476C176.531 41.4467 176.531 41.4458 176.531 41.4449C176.531 41.4439 176.531 41.443 176.531 41.4421C176.531 41.4412 176.531 41.4402 176.531 41.4393C176.531 41.4384 176.531 41.4375 176.531 41.4365C176.531 41.4356 176.531 41.4347 176.531 41.4337C176.531 41.4328 176.531 41.4319 176.531 41.431C176.531 41.43 176.531 41.429 176.531 41.4281C176.531 41.4272 176.531 41.4262 176.531 41.4253C176.531 41.4244 176.531 41.4235 176.531 41.4225C176.531 41.4216 176.531 41.4207 176.531 41.4197C176.531 41.4188 176.531 41.4179 176.531 41.417C176.531 41.416 176.531 41.4151 176.531 41.4142C176.531 41.4133 176.531 41.4123 176.531 41.4114C176.531 41.4105 176.531 41.4095 176.531 41.4086C176.531 41.4077 176.531 41.4067 176.531 41.4058C176.531 41.4049 176.531 41.404 176.531 41.403C176.531 41.4021 176.531 41.4011 176.531 41.4001C176.531 41.3992 176.531 41.3983 176.531 41.3974C176.531 41.3964 176.531 41.3955 176.531 41.3946C176.531 41.3936 176.531 41.3927 176.531 41.3918C176.531 41.3908 176.531 41.3899 176.531 41.389C176.531 41.388 176.531 41.3871 176.531 41.3862C176.531 41.3852 176.531 41.3843 176.531 41.3834C176.531 41.3825 176.531 41.3815 176.531 41.3806C176.531 41.3797 176.531 41.3787 176.531 41.3778C176.531 41.3769 176.531 41.3759 176.531 41.375C176.531 41.3741 176.531 41.3731 176.531 41.3722C176.531 41.3713 176.531 41.3703 176.531 41.3694C176.531 41.3684 176.531 41.3674 176.531 41.3665C176.531 41.3656 176.531 41.3646 176.531 41.3637C176.531 41.3628 176.531 41.3618 176.531 41.3609C176.531 41.36 176.531 41.359 176.531 41.3581C176.531 41.3572 176.531 41.3562 176.531 41.3553C176.531 41.3543 176.531 41.3534 176.531 41.3525C176.531 41.3515 176.531 41.3506 176.531 41.3497C176.531 41.3487 176.531 41.3478 176.531 41.3469C176.531 41.3459 176.531 41.345 176.531 41.3441C176.531 41.3431 176.531 41.3422 176.531 41.3412C176.531 41.3403 176.531 41.3394 176.531 41.3384C176.531 41.3375 176.531 41.3366 176.531 41.3356C176.531 41.3347 176.531 41.3337 176.531 41.3328C176.531 41.3318 176.531 41.3309 176.531 41.3299C176.531 41.329 176.531 41.328 176.531 41.3271C176.531 41.3261 176.531 41.3252 176.531 41.3243C176.531 41.3233 176.531 41.3224 176.531 41.3214C176.531 41.3205 176.531 41.3196 176.531 41.3186C176.531 41.3177 176.531 41.3167 176.531 41.3158C176.531 41.3149 176.531 41.3139 176.531 41.313C176.531 41.312 176.531 41.3111 176.531 41.3102C176.531 41.3092 176.531 41.3083 176.531 41.3073C176.531 41.3064 176.531 41.3055 176.531 41.3045C176.531 41.3036 176.531 41.3026 176.531 41.3017C176.531 41.3008 176.531 41.2998 176.531 41.2989C176.531 41.2979 176.531 41.297 176.531 41.296C176.531 41.2951 176.531 41.2942 176.531 41.2932C176.531 41.2923 176.531 41.2913 176.531 41.2904C176.531 41.2895 176.531 41.2885 176.531 41.2876C176.531 41.2866 176.531 41.2857 176.531 41.2847C176.531 41.2838 176.531 41.2828 176.531 41.2818C176.531 41.2809 176.531 41.2799 176.531 41.279C176.531 41.278 176.531 41.2771 176.531 41.2761C176.531 41.2752 176.531 41.2743 176.531 41.2733C176.531 41.2724 176.531 41.2714 176.531 41.2705C176.531 41.2695 176.531 41.2686 176.531 41.2676C176.531 41.2667 176.531 41.2657 176.531 41.2648C176.531 41.2639 176.531 41.2629 176.531 41.262C176.531 41.261 176.531 41.2601 176.531 41.2591C176.531 41.2582 176.531 41.2572 176.531 41.2563C176.531 41.2553 176.531 41.2544 176.531 41.2534C176.531 41.2525 176.531 41.2516 176.531 41.2506C176.531 41.2497 176.531 41.2487 176.531 41.2478C176.531 41.2468 176.531 41.2459 176.531 41.2449C176.531 41.244 176.531 41.243 176.531 41.2421C176.531 41.2411 176.531 41.2402 176.531 41.2392C176.531 41.2383 176.531 41.2373 176.531 41.2364C176.531 41.2354 176.531 41.2345 176.531 41.2335C176.531 41.2326 176.531 41.2316 176.531 41.2307C176.531 41.2297 176.531 41.2288 176.531 41.2278C176.531 41.2269 176.531 41.2259 176.531 41.225C176.531 41.224 176.531 41.2231 176.531 41.2221C176.531 41.2212 176.531 41.2202 176.531 41.2193C176.531 41.2183 176.531 41.2174 176.531 41.2164C176.531 41.2155 176.531 41.2145 176.531 41.2136C176.531 41.2126 176.531 41.2117 176.531 41.2107C176.531 41.2097 176.531 41.2088 176.531 41.2078C176.531 41.2069 176.531 41.2059 176.531 41.2049C176.531 41.204 176.531 41.203 176.531 41.2021C176.531 41.2011 176.531 41.2001 176.531 41.1992C176.531 41.1982 176.531 41.1973 176.531 41.1963C176.531 41.1954 176.531 41.1944 176.531 41.1935C176.531 41.1925 176.531 41.1916 176.531 41.1906C176.531 41.1897 176.531 41.1887 176.531 41.1877C176.531 41.1868 176.531 41.1858 176.531 41.1849C176.531 41.1839 176.531 41.183 176.531 41.182C176.531 41.1811 176.531 41.1801 176.531 41.1791C176.531 41.1782 176.531 41.1772 176.531 41.1763C176.531 41.1753 176.531 41.1744 176.531 41.1734C176.531 41.1725 176.531 41.1715 176.531 41.1705C176.531 41.1696 176.531 41.1686 176.531 41.1677C176.531 41.1667 176.531 41.1658 176.531 41.1648C176.531 41.1638 176.531 41.1629 176.531 41.1619C176.531 41.161 176.531 41.16 176.531 41.1591C176.531 41.1581 176.531 41.1571 176.531 41.1562C176.531 41.1552 176.531 41.1543 176.531 41.1533C176.531 41.1524 176.531 41.1514 176.531 41.1504C176.531 41.1495 176.531 41.1485 176.531 41.1476C176.531 41.1466 176.531 41.1456 176.531 41.1447C176.531 41.1437 176.531 41.1428 176.531 41.1418C176.531 41.1408 176.531 41.1399 176.531 41.1389C176.531 41.138 176.531 41.137 176.531 41.136C176.531 41.1351 176.531 41.1341 176.531 41.1332C176.531 41.1322 176.531 41.1312 176.531 41.1303C176.531 41.1293 176.531 41.1284 176.531 41.1274C176.531 41.1264 176.531 41.1255 176.531 41.1245C176.531 41.1235 176.531 41.1226 176.531 41.1216C176.531 41.1207 176.531 41.1197 176.531 41.1187C176.531 41.1178 176.531 41.1168 176.531 41.1158C176.531 41.1149 176.531 41.1139 176.531 41.113C176.531 41.112 176.531 41.111 176.531 41.1101C176.531 41.1091 176.531 41.1081 176.531 41.1072C176.531 41.1062 176.531 41.1053 176.531 41.1043C176.531 41.1033 176.531 41.1024 176.531 41.1014C176.531 41.1004 176.531 41.0995 176.531 41.0985C176.531 41.0975 176.531 41.0966 176.531 41.0956C176.531 41.0946 176.531 41.0937 176.531 41.0927C176.531 41.0917 176.531 41.0908 176.531 41.0898C176.531 41.0889 176.531 41.0879 176.531 41.0869C176.531 41.086 176.531 41.085 176.531 41.084C176.531 41.0831 176.531 41.0821 176.531 41.0811C176.531 41.0802 176.531 41.0792 176.531 41.0782C176.531 41.0773 176.531 41.0763 176.531 41.0753C176.531 41.0744 176.531 41.0734 176.531 41.0724C176.531 41.0714 176.531 41.0705 176.531 41.0695C176.531 41.0685 176.531 41.0676 176.531 41.0666C176.531 41.0656 176.531 41.0647 176.531 41.0637C176.531 41.0627 176.531 41.0618 176.531 41.0608C176.531 41.0598 176.531 41.0589 176.531 41.0579C176.531 41.0569 176.531 41.056 176.531 41.055C176.531 41.054 176.531 41.053 176.531 41.0521C176.531 41.0511 176.531 41.0501 176.531 41.0492C176.531 41.0482 176.531 41.0472 176.531 41.0463C176.531 41.0453 176.531 41.0443 176.531 41.0434C176.531 41.0424 176.531 41.0415 176.531 41.0405C176.531 41.0395 176.531 41.0385 176.531 41.0376C176.531 41.0366 176.531 41.0357 176.531 41.0347C176.531 41.0337 176.531 41.0328 176.531 41.0318C176.531 41.0308 176.531 41.0298 176.531 41.0289C176.531 41.0279 176.531 41.0269 176.531 41.0259C176.531 41.025 176.531 41.024 176.531 41.023C176.531 41.0221 176.531 41.0211 176.531 41.0201C176.531 41.0191 176.531 41.0182 176.531 41.0172C176.531 41.0162 176.531 41.0152 176.531 41.0143C176.531 41.0133 176.531 41.0123 176.531 41.0113C176.531 41.0104 176.531 41.0094 176.531 41.0084C176.531 41.0074 176.531 41.0065 176.531 41.0055C176.531 41.0045 176.531 41.0035 176.531 41.0026C176.531 41.0016 176.531 41.0006 176.531 40.9996C176.531 40.9987 176.531 40.9977 176.531 40.9967C176.531 40.9957 176.531 40.9948 176.531 40.9938C176.531 40.9928 176.531 40.9918 176.531 40.9909C176.531 40.9899 176.531 40.9889 176.531 40.9879C176.531 40.9869 176.531 40.986 176.531 40.985C176.531 40.984 176.531 40.983 176.531 40.9821C176.531 40.9811 176.531 40.9801 176.531 40.9791C176.531 40.9781 176.531 40.9772 176.531 40.9762C176.531 40.9752 176.531 40.9742 176.531 40.9733C176.531 40.9723 176.531 40.9713 176.531 40.9703C176.531 40.9693 176.531 40.9684 176.531 40.9674C176.531 40.9664 176.531 40.9655 176.531 40.9645C176.531 40.9635 176.531 40.9626 176.531 40.9616C176.531 40.9606 176.531 40.9596 176.531 40.9587C176.531 40.9577 176.531 40.9567 176.531 40.9557C176.531 40.9547 176.531 40.9538 176.531 40.9528C176.531 40.9518 176.531 40.9508 176.531 40.9498C176.531 40.9488 176.531 40.9479 176.531 40.9469C176.531 40.9459 176.531 40.9449 176.531 40.9439C176.531 40.943 176.531 40.942 176.531 40.941C176.531 40.94 176.531 40.939 176.531 40.938C176.531 40.9371 176.531 40.9361 176.531 40.9351C176.531 40.9341 176.531 40.9331 176.531 40.9321C176.531 40.9312 176.531 40.9302 176.531 40.9292C176.531 40.9282 176.531 40.9272 176.531 40.9262C176.531 40.9253 176.531 40.9243 176.531 40.9233C176.531 40.9223 176.531 40.9213 176.531 40.9203C176.531 40.9194 176.531 40.9184 176.531 40.9174C176.531 40.9164 176.531 40.9154 176.531 40.9145C176.531 40.9135 176.531 40.9125 176.531 40.9116C176.531 40.9106 176.531 40.9096 176.531 40.9086C176.531 40.9076 176.531 40.9066 176.531 40.9057C176.531 40.9047 176.531 40.9037 176.531 40.9027C176.531 40.9017 176.531 40.9007 176.531 40.8997C176.531 40.8988 176.531 40.8978 176.531 40.8968C176.531 40.8958 176.531 40.8948 176.531 40.8938C176.531 40.8928 176.531 40.8918 176.531 40.8909C176.531 40.8899 176.531 40.8889 176.531 40.8879C176.531 40.8869 176.531 40.8859 176.531 40.8849C176.531 40.8839 176.531 40.8829 176.531 40.882C176.531 40.881 176.531 40.88 176.531 40.879C176.531 40.878 176.531 40.877 176.531 40.876C176.531 40.875 176.531 40.8741 176.531 40.8731C176.531 40.8722 176.531 40.8712 176.531 40.8702C176.531 40.8692 176.531 40.8682 176.531 40.8672C176.531 40.8662 176.531 40.8652 176.531 40.8642C176.531 40.8632 176.531 40.8623 176.531 40.8613C176.531 40.8603 176.531 40.8593 176.531 40.8583C176.531 40.8573 176.531 40.8563 176.531 40.8553C176.531 40.8543 176.531 40.8533 176.531 40.8523C176.531 40.8513 176.531 40.8504 176.531 40.8494C176.531 40.8484 176.531 40.8474 176.531 40.8464C176.531 40.8454 176.531 40.8444 176.531 40.8434C176.531 40.8424 176.531 40.8414 176.531 40.8404C176.531 40.8395 176.531 40.8385 176.531 40.8375C176.531 40.8365 176.531 40.8356 176.531 40.8346C176.531 40.8336 176.531 40.8326 176.531 40.8316C176.531 40.8306 176.531 40.8296 176.531 40.8286C176.531 40.8276 176.531 40.8266 176.531 40.8256C176.531 40.8246 176.531 40.8236 176.531 40.8226C176.531 40.8216 176.531 40.8206 176.531 40.8196C176.531 40.8186 176.531 40.8176 176.531 40.8166C176.531 40.8157 176.531 40.8147 176.531 40.8137C176.531 40.8127 176.531 40.8117 176.531 40.8107C176.531 40.8097 176.531 40.8087 176.531 40.8077C176.531 40.8068 176.531 40.8058 176.531 40.8048C176.531 40.8038 176.531 40.8028 176.531 40.8018C176.531 40.8008 176.531 40.7998 176.531 40.7988C176.531 40.7978 176.531 40.7968 176.531 40.7958C176.531 40.7948 176.531 40.7938 176.531 40.7928C176.531 40.7918 176.531 40.7908 176.531 40.7898C176.531 40.7888 176.531 40.7878 176.531 40.7868C176.531 40.7858 176.531 40.7848 176.531 40.7838C176.531 40.7828 176.531 40.7818 176.531 40.7808C176.531 40.7798 176.531 40.7789 176.531 40.7779C176.531 40.7769 176.531 40.7759 176.531 40.7749C176.531 40.7739 176.531 40.7729 176.531 40.7719C176.531 40.7709 176.531 40.7699 176.531 40.7689C176.531 40.7679 176.531 40.7669 176.531 40.7659C176.531 40.7649 176.531 40.7639 176.531 40.7629C176.531 40.7619 176.531 40.7609 176.531 40.7599C176.531 40.7589 176.531 40.7579 176.531 40.7569C176.531 40.7559 176.531 40.7549 176.531 40.7539C176.531 40.7529 176.531 40.7519 176.531 40.751C176.531 40.75 176.531 40.749 176.531 40.748C176.531 40.7469 176.531 40.7459 176.531 40.7449C176.531 40.7439 176.531 40.7429 176.531 40.7419C176.531 40.7409 176.531 40.7399 176.531 40.7389C176.531 40.7379 176.531 40.7369 176.531 40.7359C176.531 40.7349 176.531 40.7339 176.531 40.7329C176.531 40.7319 176.531 40.7309 176.531 40.7299C176.531 40.7289 176.531 40.7279 176.531 40.7269C176.531 40.7259 176.531 40.7249 176.531 40.7239C176.531 40.7229 176.531 40.7219 176.531 40.7209C176.531 40.7199 176.531 40.7189 176.531 40.7179C176.531 40.7169 176.531 40.7159 176.531 40.7149C176.531 40.7139 176.531 40.7129 176.531 40.7118C176.531 40.7108 176.531 40.7098 176.531 40.7088C176.531 40.7078 176.531 40.7068 176.531 40.7058C176.531 40.7048 176.531 40.7038 176.531 40.7029C176.531 40.7019 176.531 40.7009 176.531 40.6999C176.531 40.6988 176.531 40.6978 176.531 40.6968C176.531 40.6958 176.531 40.6948 176.531 40.6938C176.531 40.6928 176.531 40.6918 176.531 40.6908C176.531 40.6898 176.531 40.6887 176.531 40.6877C176.531 40.6867 176.531 40.6857 176.531 40.6847C176.531 40.6837 176.531 40.6827 176.531 40.6817C176.531 40.6808 176.531 40.6798 176.531 40.6787C176.531 40.6777 176.531 40.6767 176.531 40.6757C176.531 40.6747 176.531 40.6737 176.531 40.6727C176.531 40.6717 176.531 40.6706 176.531 40.6696C176.531 40.6686 176.531 40.6676 176.531 40.6666C176.531 40.6656 176.531 40.6646 176.531 40.6636C176.531 40.6625 176.531 40.6615 176.531 40.6606C176.531 40.6596 176.531 40.6586 176.531 40.6576C176.531 40.6566 176.531 40.6556 176.531 40.6545C176.531 40.6535 176.531 40.6525 176.531 40.6515C176.531 40.6505 176.531 40.6495 176.531 40.6485C176.531 40.6474 176.531 40.6464 176.531 40.6454C176.531 40.6444 176.531 40.6434 176.531 40.6424C176.531 40.6413 176.531 40.6404 176.531 40.6394C176.531 40.6384 176.531 40.6374 176.531 40.6364C176.531 40.6354 176.531 40.6343 176.531 40.6333C176.531 40.6323 176.531 40.6313 176.531 40.6303C176.531 40.6293 176.531 40.6282 176.531 40.6272C176.531 40.6262 176.531 40.6252 176.531 40.6242C176.531 40.6232 176.531 40.6221 176.531 40.6212C176.531 40.6202 176.531 40.6192 176.531 40.6182C176.531 40.6172 176.531 40.6161 176.531 40.6151C176.531 40.6141 176.531 40.6131 176.531 40.6121C176.531 40.611 176.531 40.61 176.531 40.609C176.531 40.608 176.531 40.607 176.531 40.6059C176.531 40.6049 176.531 40.6039 176.531 40.6029C176.531 40.6019 176.531 40.601 176.531 40.5999C176.531 40.5989 176.531 40.5979 176.531 40.5969C176.531 40.5959 176.531 40.5948 176.531 40.5938C176.531 40.5928 176.531 40.5918 176.531 40.5907C176.531 40.5897 176.531 40.5887 176.531 40.5877C176.531 40.5867 176.531 40.5856 176.531 40.5846C176.531 40.5837 176.531 40.5827 176.531 40.5817C176.531 40.5806 176.531 40.5796 176.531 40.5786C176.531 40.5776 176.531 40.5765 176.531 40.5755C176.531 40.5745 176.531 40.5735 176.531 40.5725C176.531 40.5714 176.531 40.5704 176.531 40.5694C176.531 40.5684 176.531 40.5673 176.531 40.5663C176.531 40.5654 176.531 40.5644 176.531 40.5634C176.531 40.5623 176.531 40.5613 176.531 40.5603C176.531 40.5593 176.531 40.5582 176.531 40.5572C176.531 40.5562 176.531 40.5552 176.531 40.5541C176.531 40.5531 176.531 40.5521 176.531 40.5511C176.531 40.55 176.531 40.549 176.531 40.5481C176.531 40.5471 176.531 40.546 176.531 40.545C176.531 40.544 176.531 40.543 176.531 40.5419C176.531 40.5409 176.531 40.5399 176.531 40.5389C176.531 40.5378 176.531 40.5368 176.531 40.5358C176.531 40.5347 176.531 40.5337 176.531 40.5327C176.531 40.5317 176.531 40.5307 176.531 40.5297C176.531 40.5287 176.531 40.5277 176.531 40.5266C176.531 40.5256 176.531 40.5246 176.531 40.5235C176.531 40.5225 176.531 40.5215 176.531 40.5205C176.531 40.5194 176.531 40.5184 176.531 40.5174C176.531 40.5163 176.531 40.5154 176.531 40.5144C176.531 40.5134 176.531 40.5123 176.531 40.5113C176.531 40.5103 176.531 40.5092 176.531 40.5082C176.531 40.5072 176.531 40.5062 176.531 40.5051C176.531 40.5041 176.531 40.5031 176.531 40.502C176.531 40.501 176.531 40.5 176.531 40.499C176.531 40.498 176.531 40.497 176.531 40.4959C176.531 40.4949 176.531 40.4939 176.531 40.4929C176.531 40.4918 176.531 40.4908 176.531 40.4898C176.531 40.4887 176.531 40.4877 176.531 40.4867C176.531 40.4856 176.531 40.4846 176.531 40.4837C176.531 40.4826 176.531 40.4816 176.531 40.4806C176.531 40.4795 176.531 40.4785 176.531 40.4775C176.531 40.4764 176.531 40.4754 176.531 40.4744C176.531 40.4733 176.531 40.4723 176.531 40.4713C176.531 40.4702 176.531 40.4692 176.531 40.4682C176.531 40.4672 176.531 40.4662 176.531 40.4652C176.531 40.4641 176.531 40.4631 176.531 40.4621C176.531 40.461 176.531 40.46 176.531 40.459C176.531 40.4579 176.531 40.4569 176.531 40.4559C176.531 40.4548 176.531 40.4538 176.531 40.4529C176.531 40.4518 176.531 40.4508 176.531 40.4497C176.531 40.4487 176.531 40.4477 176.531 40.4466C176.531 40.4456 176.531 40.4446 176.531 40.4435C176.531 40.4425 176.531 40.4415 176.531 40.4404C176.531 40.4394 176.531 40.4384 176.531 40.4374C176.531 40.4364 176.531 40.4353 176.531 40.4343C176.531 40.4333 176.531 40.4322 176.531 40.4312C176.531 40.4301 176.531 40.4291 176.531 40.4281C176.531 40.427 176.531 40.426 176.531 40.425C176.531 40.424 176.531 40.423 176.531 40.4219C176.531 40.4209 176.531 40.4199 176.531 40.4188C176.531 40.4178 176.531 40.4167 176.531 40.4157C176.531 40.4147 176.531 40.4136 176.531 40.4126C176.531 40.4115 176.531 40.4105 176.531 40.4096C176.531 40.4085 176.531 40.4075 176.531 40.4064C176.531 40.4054 176.531 40.4044 176.531 40.4033C176.531 40.4023 176.531 40.4012 176.531 40.4002C176.531 40.3992 176.531 40.3981 176.531 40.3971C176.531 40.3961 176.531 40.3951 176.531 40.3941C176.531 40.393 176.531 40.392 176.531 40.3909C176.531 40.3899 176.531 40.3888 176.531 40.3878C176.531 40.3868 176.531 40.3857 176.531 40.3847C176.531 40.3836 176.531 40.3827 176.531 40.3816C176.531 40.3806 176.531 40.3796 176.531 40.3785C176.531 40.3775 176.531 40.3764 176.531 40.3754C176.531 40.3743 176.531 40.3733 176.531 40.3723C176.531 40.3712 176.531 40.3702 176.531 40.3692C176.531 40.3682 176.531 40.3671 176.531 40.3661C176.531 40.365 176.531 40.364 176.531 40.363C176.531 40.3619 176.531 40.3609 176.531 40.3598C176.531 40.3588 176.531 40.3577 176.531 40.3567C176.531 40.3557 176.531 40.3547 176.531 40.3536C176.531 40.3526 176.531 40.3516 176.531 40.3505C176.531 40.3495 176.531 40.3484 176.531 40.3474C176.531 40.3463 176.531 40.3453 176.531 40.3442H174.749ZM174.749 41.8492C174.764 42.3897 174.856 42.9008 175.049 43.3633L176.69 42.6574C176.602 42.4454 176.541 42.1643 176.531 41.7966L174.749 41.8492ZM175.061 43.3909C175.61 44.5966 176.905 44.9671 178.282 44.9671V43.1554C177.08 43.1554 176.767 42.8254 176.678 42.6299L175.061 43.3909ZM178.282 44.9671C178.746 44.9671 179.2 44.9228 179.643 44.8327L179.294 43.0563C178.971 43.1219 178.634 43.1554 178.282 43.1554V44.9671ZM198.554 32.1318L197.719 32.4486L197.722 32.4555L197.725 32.4623L198.554 32.1318ZM198.688 37.8922L199.539 38.1603L199.54 38.1569L198.688 37.8922ZM197.501 40.5584L196.739 40.0888L196.734 40.0975L197.501 40.5584ZM193.481 44.9176L193.977 45.6704L193.978 45.6694L193.481 44.9176ZM182.914 44.217L183.577 43.6119L183.573 43.6073L182.914 44.217ZM182.416 33.1827L183.18 33.6504L183.182 33.6449L182.416 33.1827ZM189.04 27.5585L189.328 28.4155L189.339 28.4115L189.04 27.5585ZM194.706 27.7531L194.307 28.5633L194.315 28.5668L194.322 28.5701L194.706 27.7531ZM184.981 38.3982L184.128 38.6594L184.13 38.6657L184.132 38.6719L184.981 38.3982ZM186.436 41.2589L187.145 40.7107L187.143 40.7067L186.436 41.2589ZM194.744 42.1152L195.557 42.4877L195.562 42.476L194.744 42.1152ZM193.309 32.3264L192.608 32.8865L192.613 32.8923L193.309 32.3264ZM196.373 30.1416C196.949 30.8084 197.398 31.575 197.719 32.4486L199.389 31.815C198.995 30.7425 198.436 29.7836 197.711 28.9454L196.373 30.1416ZM197.725 32.4623C198.056 33.3235 198.218 34.1782 198.218 35.0315H200C200 33.9387 199.792 32.8603 199.384 31.8013L197.725 32.4623ZM198.218 35.0315C198.218 35.9145 198.091 36.7789 197.836 37.6275L199.54 38.1569C199.846 37.1373 200 36.0945 200 35.0315H198.218ZM197.837 37.6241C197.578 38.472 197.213 39.2932 196.739 40.0888L198.263 41.0279C198.81 40.1108 199.236 39.1546 199.539 38.1603L197.837 37.6241ZM196.734 40.0975C196.27 40.8957 195.715 41.6479 195.068 42.3542L196.373 43.5887C197.104 42.79 197.737 41.9335 198.268 41.0192L196.734 40.0975ZM195.068 42.3542C194.438 43.0433 193.743 43.647 192.984 44.1657L193.978 45.6694C194.852 45.0724 195.651 44.3786 196.373 43.5887L195.068 42.3542ZM192.985 44.1647C191.37 45.2637 189.785 45.7827 188.216 45.7827V47.5943C190.196 47.5943 192.121 46.9327 193.977 45.6704L192.985 44.1647ZM188.216 45.7827C186.402 45.7827 184.872 45.0784 183.577 43.6119L182.251 44.822C183.866 46.651 185.87 47.5943 188.216 47.5943V45.7827ZM183.573 43.6073C182.305 42.1903 181.68 40.552 181.68 38.6512H179.898C179.898 41.0058 180.69 43.0781 182.255 44.8266L183.573 43.6073ZM181.68 38.6512C181.68 37.0267 182.164 35.3636 183.18 33.6504L181.653 32.715C180.499 34.6604 179.898 36.643 179.898 38.6512H181.68ZM183.182 33.6449C184.704 31.0386 186.75 29.3133 189.328 28.4155L188.751 26.7015C185.74 27.7497 183.37 29.7739 181.651 32.7204L183.182 33.6449ZM189.339 28.4115C190.132 28.1238 190.974 27.9778 191.873 27.9778V26.1662C190.781 26.1662 189.735 26.3445 188.74 26.7055L189.339 28.4115ZM191.873 27.9778C192.729 27.9778 193.538 28.1718 194.307 28.5633L195.105 26.9429C194.088 26.4262 193.007 26.1662 191.873 26.1662V27.9778ZM194.322 28.5701C195.121 28.9595 195.803 29.4826 196.373 30.1416L197.711 28.9454C196.979 28.0994 196.103 27.429 195.091 26.9361L194.322 28.5701ZM187.987 28.7739C187.199 28.7739 186.47 28.9705 185.838 29.3972C185.21 29.8213 184.734 30.4348 184.387 31.1793L185.997 31.9556C186.237 31.4416 186.521 31.1112 186.824 30.9061C187.124 30.7037 187.499 30.5856 187.987 30.5856V28.7739ZM184.387 31.1793C183.864 32.3026 183.612 33.5541 183.612 34.9147H185.394C185.394 33.7843 185.602 32.8043 185.997 31.9556L184.387 31.1793ZM183.612 34.9147C183.612 36.2393 183.782 37.4893 184.128 38.6594L185.835 38.137C185.543 37.1534 185.394 36.0811 185.394 34.9147H183.612ZM184.132 38.6719C184.494 39.8315 185.026 40.8802 185.73 41.8112L187.143 40.7067C186.571 39.951 186.133 39.0927 185.831 38.1244L184.132 38.6719ZM185.727 41.8071C187.302 43.9141 189.385 45.006 191.912 45.006V43.1944C189.972 43.1944 188.404 42.3922 187.145 40.7107L185.727 41.8071ZM191.912 45.006C192.718 45.006 193.461 44.7985 194.102 44.3498C194.737 43.9048 195.213 43.2633 195.557 42.4877L193.932 41.7428C193.689 42.2906 193.4 42.6415 193.09 42.8581C192.786 43.0711 192.407 43.1944 191.912 43.1944V45.006ZM195.562 42.476C196.04 41.3561 196.267 40.0943 196.267 38.7095H194.485C194.485 39.8936 194.291 40.9022 193.927 41.7544L195.562 42.476ZM196.267 38.7095C196.267 36.0252 195.524 33.6914 194.005 31.7606L192.613 32.8923C193.85 34.4644 194.485 36.3859 194.485 38.7095H196.267ZM194.009 31.7663C192.476 29.7866 190.447 28.7739 187.987 28.7739V30.5856C189.892 30.5856 191.41 31.3373 192.608 32.8865L194.009 31.7663Z" fill="white"/>
<path d="M51.3301 40.1612C51.3301 40.1612 53.6199 39.3966 53.9603 36.2012C54.0226 35.6239 54.1416 35.0545 54.3155 34.5015C54.2959 34.5052 54.2769 34.5113 54.2588 34.5197L47.5596 37.6329L49.7508 39.1042L51.3301 40.1612Z" fill="#FF681A"/>
<path d="M52.6553 43.1751L50.7028 41.6975C50.1989 41.3176 49.6399 41.0206 49.046 40.8171C48.3366 40.5497 47.5896 40.4005 46.8338 40.3754C46.0881 40.3346 45.3407 40.4064 44.6156 40.5886C43.8886 40.76 43.1925 41.0468 42.5527 41.4386C41.2572 42.2126 40.213 43.3577 39.5494 44.7318C39.2795 45.3015 39.0732 45.9004 38.9344 46.5171C39.2524 46.5206 39.569 46.5615 39.8778 46.6389C40.7413 46.855 41.5025 47.3749 42.0273 48.1074C41.3869 47.5635 40.6143 47.2066 39.7912 47.0746C39.4771 47.0264 39.1584 47.0162 38.8419 47.0441C38.7568 47.0496 38.6721 47.0598 38.5881 47.0746C38.1986 47.1211 37.8188 47.2301 37.4626 47.3975C36.7351 47.72 36.1134 48.2486 35.6714 48.9208C35.6661 48.9304 35.6601 48.9395 35.6535 48.9482C35.6087 49.0183 35.5639 49.0944 35.5221 49.1706C35.1499 49.8319 34.9447 50.5773 34.925 51.3397C34.7425 50.4825 34.8553 49.5872 35.2445 48.805C34.7942 48.2618 34.251 47.8066 33.6413 47.4615C32.9369 47.0573 32.1577 46.8073 31.3534 46.7274C30.549 46.6475 29.7372 46.7394 28.9696 46.9974C28.202 47.2553 27.4955 47.6736 26.8951 48.2256C26.2946 48.7776 25.8135 49.4511 25.4822 50.2034C25.2777 50.6616 25.1322 51.1449 25.0494 51.6413C25.0177 51.8157 24.9948 51.9916 24.9807 52.1683C24.8901 53.1719 25.0397 54.1828 25.4166 55.1143C24.9913 54.3573 24.7411 53.5112 24.6851 52.6405C24.6851 52.4578 24.6851 52.275 24.6851 52.0922C24.2438 52.0031 23.7946 51.9613 23.3447 51.9673C22.5406 51.9722 21.7456 52.1421 21.0071 52.4669C21.3693 52.9722 21.6023 53.5617 21.6848 54.1821C21.4916 53.5849 21.1668 53.0409 20.7355 52.5918C20.6376 52.479 20.5286 52.3769 20.4101 52.2872C19.8657 51.8127 19.2043 51.4997 18.4977 51.3824C17.7911 51.2652 17.0665 51.348 16.4029 51.6221C15.7393 51.8961 15.1621 52.3507 14.7343 52.9364C14.3064 53.5221 14.0443 54.2165 13.9765 54.9437C13.9599 54.8677 13.9509 54.7901 13.9497 54.7122C13.9578 54.0697 14.111 53.4379 14.3974 52.8656C14.6837 52.2934 15.0954 51.7963 15.6006 51.4128C15.8038 51.2774 16.0186 51.1612 16.2424 51.0655C16.2783 51.0655 16.3111 51.0381 16.3469 51.0289C16.3707 51.0205 16.3909 51.0038 16.4038 50.9818C16.4168 50.9597 16.4218 50.9337 16.4179 50.9083C16.4139 50.8829 16.4014 50.8597 16.3824 50.8428C16.3635 50.8259 16.3393 50.8163 16.3141 50.8157H16.2962C12.2271 50.7307 8.22358 49.753 4.55762 47.9489C5.02632 48.61 5.53086 49.2498 6.05031 49.8652C7.47384 51.5297 9.0761 53.0258 10.8269 54.3253C11.8041 55.0518 12.8263 55.7133 13.887 56.3055L14.1616 56.4426C14.176 56.4585 14.192 56.4728 14.2094 56.4852C14.8751 56.8478 15.5558 57.1768 16.2454 57.4845L16.4096 57.5667C18.0334 58.2762 19.7159 58.837 21.437 59.2423C25.1336 60.111 28.961 60.2342 32.7039 59.6048C36.3221 59.0013 39.8004 57.7227 42.9647 55.8333C46.6391 53.6329 49.7978 50.6394 52.2194 47.0624C52.2482 47.0299 52.2732 46.9941 52.2941 46.9558C52.6195 46.4866 52.8911 46.0601 53.1031 45.6915C53.1059 45.6826 53.1059 45.673 53.1031 45.6641L53.1837 45.5361C53.388 45.1434 53.447 44.6887 53.35 44.2553C53.253 43.8218 53.0064 43.4384 52.6553 43.1751Z" fill="#37D4D9"/>
<path d="M18.8994 40.3901C19.2905 40.4815 19.6786 40.5729 20.0936 40.6491C19.6914 40.5839 19.2928 40.4975 18.8994 40.3901Z" fill="white"/>
<path d="M20.1599 40.6587V40.6739C20.1437 40.6725 20.1281 40.6673 20.1143 40.6587C20.1143 40.6587 20.1264 40.6587 20.1599 40.6587Z" fill="white"/>
<path d="M61.892 27.1656C60.3635 27.4174 58.8534 27.7747 57.3722 28.2349C57.2506 28.2687 57.131 28.3094 57.0139 28.3568C56.6109 28.4787 56.175 28.6188 55.7421 28.7528C55.5033 28.8321 55.2794 28.9234 55.0376 28.9996C53.6746 29.336 52.2807 29.5249 50.8789 29.5632C49.152 29.65 47.4229 29.4441 45.762 28.9539C41.3018 27.5952 38.597 24.57 32.8621 27.8694L42.8452 34.4985L44.7618 33.7857L43.2274 34.7514L42.9796 34.8976L42.9318 34.9281C41.5884 35.7324 39.3971 36.9053 39.3822 36.9175C37.2972 37.9002 34.9177 38.0096 32.7546 37.2221C29.1482 35.8756 27.9362 37.3897 27.9362 37.3897L32.1366 40.2534H32.1068L32.9755 40.8322L31.5694 40.2838C27.2286 41.2465 23.3834 41.277 20.1532 40.6494C20.1204 40.6646 20.1085 40.6494 20.0935 40.6494C19.6726 40.5732 19.2845 40.4819 18.8994 40.3905L18.7203 40.3448C16.5532 39.8067 14.5197 38.8138 12.7495 37.4293C12.7047 37.3958 12.6748 37.3683 12.6301 37.3379C8.964 34.5656 5.59647 29.5327 6.91601 20.6309C7.26575 23.2208 8.00698 25.7397 9.11326 28.0978C9.26484 26.1552 9.67875 24.2432 10.3432 22.4161C11.3206 19.9548 12.6738 17.6669 14.3526 15.6377C16.0591 13.5809 18.0744 11.8133 20.3234 10.4007C24.3563 7.87096 29.0275 6.60345 33.7591 6.75506C38.4907 6.90668 43.0748 8.47077 46.9442 11.2538C49.7208 13.2394 52.0513 15.8056 53.7807 18.7817C54.8349 20.5869 55.6595 22.5217 56.2347 24.5395L56.9094 24.4329C56.5121 22.2707 55.8792 20.1606 55.0226 18.1419C53.5677 14.7071 51.4972 11.5796 48.9175 8.92015C46.2646 6.14291 43.0975 3.93101 39.6001 2.41283C35.9821 0.846487 32.0961 0.0264529 28.166 4.37506e-06C21.5091 -0.00368478 15.0528 2.32582 9.87752 6.59872C9.83954 6.64238 9.794 6.67852 9.74318 6.70534C9.74318 6.72058 9.71333 6.73581 9.71333 6.75104C-1.5834 16.5547 -1.4192 30.4345 2.17222 36.6067C5.65618 42.5931 14.7407 43.8604 16.4155 44.028C16.5052 44.0455 16.596 44.0557 16.6872 44.0584C25.112 44.7926 33.1308 42.0721 38.0835 39.8756H38.1074C41.2958 38.6997 45.8306 37.0332 50.1833 35.446C52.6672 34.532 55.0913 33.6455 57.1721 32.8961L57.3065 32.8504C58.8798 32.2715 60.2411 31.7811 61.289 31.4002C62.4533 30.9707 63.2026 30.7117 63.3071 30.6813C66.591 29.7612 68.1315 26.2517 61.892 27.1656Z" fill="#FF681A"/>
</svg>
